<svg width="10" height="10" viewBox="0 0 10 10" fill="none" xmlns="http://www.w3.org/2000/svg">
<g filter="url(#filter0_i_1079_215)">
<path d="M4.99951 2C6.6561 2 7.99948 3.34329 7.99951 5C7.99951 6.65673 6.65612 8 4.99951 8C3.34293 7.99998 2.00049 6.65672 2.00049 5C2.00052 3.34331 3.34295 2.00002 4.99951 2ZM4.71172 6.18602C4.47096 6.42686 4.35059 6.54729 4.39395 6.71356C4.39876 6.73198 4.41013 6.76124 4.41903 6.77806C4.49934 6.92998 4.63798 6.9361 4.91525 6.94834C4.94318 6.94957 4.97127 6.95019 4.99951 6.9502C6.07631 6.9502 6.94971 6.07688 6.94971 5C6.94971 4.97145 6.94907 4.94305 6.94782 4.91481C6.9355 4.63767 6.92934 4.4991 6.7774 4.41883C6.76056 4.40994 6.73131 4.39858 6.71288 4.39378C6.54659 4.35046 6.4263 4.4708 6.18572 4.71147L4.71172 6.18602ZM4.99951 3.0498C3.92276 3.04983 3.05032 3.92316 3.05029 5C3.05029 5.0642 3.0534 5.12766 3.05947 5.19025C3.08538 5.4574 3.09834 5.59098 3.24833 5.66479C3.26507 5.67303 3.29385 5.68335 3.312 5.68763C3.47472 5.72596 3.59097 5.60972 3.82346 5.37722L5.3779 3.82278C5.61017 3.59051 5.7263 3.47438 5.688 3.31168C5.68372 3.29353 5.67341 3.26475 5.66518 3.24802C5.5914 3.09804 5.45793 3.08505 5.19099 3.05907C5.12799 3.05294 5.06411 3.0498 4.99951 3.0498Z" fill="white"/>
</g>
<defs>
<filter id="filter0_i_1079_215" x="0" y="0" width="10" height="10" filterUnits="userSpaceOnUse" color-interpolation-filters="sRGB">
<feFlood flood-opacity="0" result="BackgroundImageFix"/>
<feBlend mode="normal" in="SourceGraphic" in2="BackgroundImageFix" result="shape"/>
<feColorMatrix in="SourceAlpha" type="matrix" values="0 0 0 0 0 0 0 0 0 0 0 0 0 0 0 0 0 0 127 0" result="hardAlpha"/>
<feOffset/>
<feGaussianBlur stdDeviation="1"/>
<feComposite in2="hardAlpha" operator="arithmetic" k2="-1" k3="1"/>
<feColorMatrix type="matrix" values="0 0 0 0 0.942 0 0 0 0 0.94 0 0 0 0 1 0 0 0 0.1 0"/>
<feBlend mode="hard-light" in2="shape" result="effect1_innerShadow_1079_215"/>
</filter>
</defs>
</svg>
