<svg width="10" height="10" viewBox="0 0 10 10" fill="none" xmlns="http://www.w3.org/2000/svg">
<g filter="url(#filter0_i_1566_161)">
<path d="M2.59998 7.45C2.59998 7.00817 2.95815 6.65 3.39998 6.65C3.8418 6.65 4.19998 7.00817 4.19998 7.45C4.19998 7.89183 3.8418 8.25 3.39998 8.25C2.95815 8.25 2.59998 7.89183 2.59998 7.45Z" fill="white"/>
<path d="M2.39996 2.65C2.39996 2.20817 2.75814 1.75 3.39996 1.75C4.04179 1.75 4.39996 2.20817 4.39996 2.65C4.39996 3.09183 4.19996 4.70817 4.09996 5.15C3.99996 5.59183 3.84179 5.95 3.39996 5.95C2.95814 5.95 2.79996 5.59183 2.69996 5.15C2.59996 4.70817 2.39996 3.09183 2.39996 2.65Z" fill="white"/>
<path d="M5.80005 7.45C5.80005 7.00817 6.15822 6.65 6.60005 6.65C7.04188 6.65 7.40005 7.00817 7.40005 7.45C7.40005 7.89183 7.04188 8.25 6.60005 8.25C6.15822 8.25 5.80005 7.89183 5.80005 7.45Z" fill="white"/>
<path d="M5.60004 2.65C5.60004 2.20817 5.95821 1.75 6.60004 1.75C7.24186 1.75 7.60004 2.20817 7.60004 2.65C7.60004 3.09183 7.40004 4.70817 7.30004 5.15C7.20004 5.59183 7.04186 5.95 6.60004 5.95C6.15821 5.95 6.00004 5.59183 5.90004 5.15C5.80004 4.70817 5.60004 3.09183 5.60004 2.65Z" fill="white"/>
</g>
<defs>
<filter id="filter0_i_1566_161" x="0" y="0" width="10" height="10" filterUnits="userSpaceOnUse" color-interpolation-filters="sRGB">
<feFlood flood-opacity="0" result="BackgroundImageFix"/>
<feBlend mode="normal" in="SourceGraphic" in2="BackgroundImageFix" result="shape"/>
<feColorMatrix in="SourceAlpha" type="matrix" values="0 0 0 0 0 0 0 0 0 0 0 0 0 0 0 0 0 0 127 0" result="hardAlpha"/>
<feOffset/>
<feGaussianBlur stdDeviation="1"/>
<feComposite in2="hardAlpha" operator="arithmetic" k2="-1" k3="1"/>
<feColorMatrix type="matrix" values="0 0 0 0 0.942 0 0 0 0 0.94 0 0 0 0 1 0 0 0 0.1 0"/>
<feBlend mode="hard-light" in2="shape" result="effect1_innerShadow_1566_161"/>
</filter>
</defs>
</svg>
