<svg width="10" height="10" viewBox="0 0 10 10" fill="none" xmlns="http://www.w3.org/2000/svg">
<g filter="url(#filter0_i_1079_163)">
<path d="M6.7998 3.8501C6.7998 3.80376 6.7998 3.78059 6.79853 3.76103C6.77887 3.46052 6.53948 3.22113 6.23897 3.20148C6.21941 3.2002 6.19624 3.2002 6.1499 3.2002H6.1001C6.10001 3.2002 6.09996 3.2002 6.09992 3.2002C5.76861 3.20015 5.50004 2.93158 5.5 2.60027C5.5 2.60023 5.5 2.60019 5.5 2.6001C5.5 2.60001 5.5 2.59996 5.5 2.59992C5.50004 2.26861 5.76861 2.00004 6.09992 2C6.09996 2 6.10001 2 6.1001 2H6.83008C6.94177 2 7.07976 1.99929 7.19824 2.01367C7.33073 2.02977 7.51648 2.07234 7.68457 2.21582C7.72026 2.24632 7.75367 2.27975 7.78418 2.31543C7.92764 2.4834 7.9702 2.66925 7.98633 2.80176C8.0007 2.92012 8 3.05829 8 3.16992V3.8999C8 3.89999 8 3.90004 8 3.90008C7.99996 4.23139 7.73139 4.49996 7.40008 4.5C7.40004 4.5 7.39999 4.5 7.3999 4.5C7.39981 4.5 7.39977 4.5 7.39973 4.5C7.06842 4.49996 6.79985 4.23139 6.7998 3.90008C6.7998 3.90004 6.7998 3.89999 6.7998 3.8999V3.8501ZM2 3.16992C2 3.05829 1.9993 2.92012 2.01367 2.80176C2.0298 2.66925 2.07236 2.4834 2.21582 2.31543C2.24633 2.27975 2.27974 2.24632 2.31543 2.21582C2.48352 2.07234 2.66927 2.02977 2.80176 2.01367C2.92024 1.99929 3.05823 2 3.16992 2H3.8999C3.89999 2 3.90004 2 3.90008 2C4.23139 2.00004 4.49996 2.26861 4.5 2.59992C4.5 2.59996 4.5 2.60001 4.5 2.6001C4.5 2.60019 4.5 2.60023 4.5 2.60027C4.49996 2.93158 4.23139 3.20015 3.90008 3.2002C3.90004 3.2002 3.89999 3.2002 3.8999 3.2002H3.8501C3.80376 3.2002 3.78059 3.2002 3.76103 3.20148C3.46052 3.22113 3.22113 3.46052 3.20148 3.76103C3.2002 3.78059 3.2002 3.80376 3.2002 3.8501V3.8999C3.2002 3.89999 3.2002 3.90004 3.2002 3.90008C3.20015 4.23139 2.93158 4.49996 2.60027 4.5C2.60023 4.5 2.60019 4.5 2.6001 4.5C2.60001 4.5 2.59996 4.5 2.59992 4.5C2.26861 4.49996 2.00004 4.23139 2 3.90008C2 3.90004 2 3.89999 2 3.8999V3.16992ZM5.5 7.3999C5.5 7.39981 5.5 7.39977 5.5 7.39973C5.50004 7.06842 5.76861 6.79985 6.09992 6.7998C6.09996 6.7998 6.10001 6.7998 6.1001 6.7998H6.1499C6.19624 6.7998 6.21941 6.7998 6.23897 6.79853C6.53948 6.77887 6.77887 6.53948 6.79853 6.23897C6.7998 6.21941 6.7998 6.19624 6.7998 6.1499V6.1001C6.7998 6.10001 6.7998 6.09996 6.7998 6.09992C6.79985 5.76861 7.06842 5.50004 7.39973 5.5C7.39977 5.5 7.39981 5.5 7.3999 5.5C7.39999 5.5 7.40004 5.5 7.40008 5.5C7.73139 5.50004 7.99996 5.76861 8 6.09992C8 6.09996 8 6.10001 8 6.1001V6.83008C8 6.94166 8.00066 7.07983 7.98633 7.19824C7.97024 7.33071 7.92761 7.5165 7.78418 7.68457C7.75369 7.72026 7.72025 7.75368 7.68457 7.78418C7.51647 7.92775 7.33077 7.97022 7.19824 7.98633C7.07975 8.00071 6.94177 8 6.83008 8H6.1001C6.10001 8 6.09996 8 6.09992 8C5.76861 7.99996 5.50004 7.73139 5.5 7.40008C5.5 7.40004 5.5 7.39999 5.5 7.3999ZM3.16992 8C3.05823 8 2.92025 8.00071 2.80176 7.98633C2.66923 7.97022 2.48353 7.92775 2.31543 7.78418C2.27975 7.75368 2.24631 7.72026 2.21582 7.68457C2.07239 7.5165 2.02976 7.33071 2.01367 7.19824C1.99934 7.07983 2 6.94166 2 6.83008V6.1001C2 6.10001 2 6.09996 2 6.09992C2.00004 5.76861 2.26861 5.50004 2.59992 5.5C2.59996 5.5 2.60001 5.5 2.6001 5.5C2.60019 5.5 2.60023 5.5 2.60027 5.5C2.93158 5.50004 3.20015 5.76861 3.2002 6.09992C3.2002 6.09996 3.2002 6.10001 3.2002 6.1001V6.1499C3.2002 6.19624 3.2002 6.21941 3.20148 6.23897C3.22113 6.53948 3.46052 6.77887 3.76103 6.79853C3.78059 6.7998 3.80376 6.7998 3.8501 6.7998H3.8999C3.89999 6.7998 3.90004 6.7998 3.90008 6.7998C4.23139 6.79985 4.49996 7.06842 4.5 7.39973C4.5 7.39977 4.5 7.39981 4.5 7.3999C4.5 7.39999 4.5 7.40004 4.5 7.40008C4.49996 7.73139 4.23139 7.99996 3.90008 8C3.90004 8 3.89999 8 3.8999 8H3.16992Z" fill="white"/>
</g>
<defs>
<filter id="filter0_i_1079_163" x="0" y="0" width="10" height="10" filterUnits="userSpaceOnUse" color-interpolation-filters="sRGB">
<feFlood flood-opacity="0" result="BackgroundImageFix"/>
<feBlend mode="normal" in="SourceGraphic" in2="BackgroundImageFix" result="shape"/>
<feColorMatrix in="SourceAlpha" type="matrix" values="0 0 0 0 0 0 0 0 0 0 0 0 0 0 0 0 0 0 127 0" result="hardAlpha"/>
<feOffset/>
<feGaussianBlur stdDeviation="1"/>
<feComposite in2="hardAlpha" operator="arithmetic" k2="-1" k3="1"/>
<feColorMatrix type="matrix" values="0 0 0 0 0.942 0 0 0 0 0.94 0 0 0 0 1 0 0 0 0.1 0"/>
<feBlend mode="hard-light" in2="shape" result="effect1_innerShadow_1079_163"/>
</filter>
</defs>
</svg>
