<svg width="10" height="10" viewBox="0 0 10 10" fill="none" xmlns="http://www.w3.org/2000/svg">
<g filter="url(#filter0_i_1233_161)">
<path d="M4.07901 5.10489C4.21047 5.13124 4.32053 5.24094 4.53995 5.46036C4.75954 5.67996 4.87009 5.78974 4.89639 5.9213C4.90772 5.97824 4.90769 6.0372 4.89639 6.09415C4.8702 6.22582 4.68937 6.40663 4.46964 6.62637L4.37589 6.72012C4.2927 6.80331 4.28864 6.94391 4.36807 7.03067C4.40848 7.07471 4.43565 7.10888 4.45206 7.13809C4.62667 7.44943 4.46511 7.84142 4.12198 7.93985C4.04868 7.96073 3.92022 7.96294 3.66397 7.96426L3.09171 7.96622C2.61928 7.96865 2.38288 7.96971 2.22647 7.83633C2.20441 7.81751 2.18379 7.79686 2.16495 7.77481C2.03159 7.61843 2.03263 7.38185 2.03506 6.90958L2.03702 6.33731C2.03834 6.08129 2.03963 5.95263 2.06046 5.8793C2.15877 5.53586 2.55171 5.37431 2.86319 5.54922C2.89219 5.56554 2.92606 5.5923 2.96964 5.63223C3.05643 5.71145 3.19605 5.7075 3.27921 5.62442L3.37393 5.53067C3.59367 5.31093 3.77546 5.13108 3.90714 5.10489C3.96382 5.09371 4.02233 5.09365 4.07901 5.10489ZM6.90811 2.03458C7.38054 2.03214 7.61694 2.03109 7.77335 2.16446C7.7954 2.18328 7.81603 2.20395 7.83487 2.22598C7.96825 2.38236 7.96719 2.61894 7.96475 3.09122L7.96182 3.66446C7.96051 3.91976 7.96008 4.04815 7.93936 4.12149C7.84104 4.46494 7.44713 4.62749 7.13565 4.45255C7.10673 4.43623 7.07361 4.40932 7.03018 4.36954C6.94334 4.28997 6.80292 4.29406 6.71964 4.37735L6.62589 4.4711C6.40634 4.69065 6.29558 4.79939 6.16397 4.82559C6.10696 4.83693 6.04813 4.83693 5.99112 4.82559C5.85958 4.7993 5.7497 4.68964 5.53018 4.47012C5.31043 4.25037 5.20091 4.1399 5.17471 4.00821C5.16348 3.95144 5.16347 3.8931 5.17471 3.83633C5.20097 3.70488 5.31001 3.59459 5.52921 3.3754L5.62393 3.28067C5.70683 3.1974 5.71014 3.05778 5.63077 2.9711C5.59037 2.92707 5.5632 2.89287 5.54678 2.86368C5.3721 2.55233 5.53468 2.15939 5.87784 2.06094C5.95112 2.04017 6.07946 2.03882 6.33487 2.03751L6.90811 2.03458Z" fill="white"/>
</g>
<defs>
<filter id="filter0_i_1233_161" x="0" y="0" width="10" height="10" filterUnits="userSpaceOnUse" color-interpolation-filters="sRGB">
<feFlood flood-opacity="0" result="BackgroundImageFix"/>
<feBlend mode="normal" in="SourceGraphic" in2="BackgroundImageFix" result="shape"/>
<feColorMatrix in="SourceAlpha" type="matrix" values="0 0 0 0 0 0 0 0 0 0 0 0 0 0 0 0 0 0 127 0" result="hardAlpha"/>
<feOffset/>
<feGaussianBlur stdDeviation="1"/>
<feComposite in2="hardAlpha" operator="arithmetic" k2="-1" k3="1"/>
<feColorMatrix type="matrix" values="0 0 0 0 0.942 0 0 0 0 0.94 0 0 0 0 1 0 0 0 0.1 0"/>
<feBlend mode="hard-light" in2="shape" result="effect1_innerShadow_1233_161"/>
</filter>
</defs>
</svg>
