<svg width="10" height="10" viewBox="0 0 10 10" fill="none" xmlns="http://www.w3.org/2000/svg">
<g filter="url(#filter0_i_1233_191)">
<path d="M7.39941 4.7998C7.39932 4.7998 7.39928 4.7998 7.39924 4.7998C7.06793 4.79976 6.79936 4.53119 6.79932 4.19988C6.79932 4.19984 6.79932 4.1998 6.79932 4.19971V4C6.79932 3.81419 6.79932 3.72128 6.77891 3.64505C6.72346 3.43788 6.56163 3.27606 6.35446 3.2206C6.27823 3.2002 6.18532 3.2002 5.99951 3.2002H5.7998C5.79971 3.2002 5.79967 3.2002 5.79963 3.2002C5.46832 3.20015 5.19975 2.93158 5.19971 2.60027C5.19971 2.60023 5.19971 2.60019 5.19971 2.6001C5.19971 2.60001 5.19971 2.59996 5.19971 2.59992C5.19975 2.26861 5.46832 2.00004 5.79963 2C5.79967 2 5.79971 2 5.7998 2H6.82959C6.94116 2 7.07933 1.99837 7.19775 2.0127C7.33023 2.02879 7.516 2.07235 7.68408 2.21582C7.71979 2.24633 7.75318 2.27973 7.78369 2.31543C7.92722 2.48347 7.9707 2.66924 7.98682 2.80176C8.00116 2.92016 7.99951 3.05833 7.99951 3.16992V4.19971C7.99951 4.1998 7.99951 4.19984 7.99951 4.19988C7.99947 4.53119 7.7309 4.79976 7.39959 4.7998C7.39955 4.7998 7.3995 4.7998 7.39941 4.7998ZM3.17041 8C3.0589 8 2.92063 8.00161 2.80225 7.9873C2.6698 7.97122 2.48397 7.92757 2.31592 7.78418C2.28025 7.7537 2.2468 7.72023 2.21631 7.68457C2.0728 7.51654 2.02931 7.33076 2.01318 7.19824C1.99884 7.07985 2.00049 6.94167 2.00049 6.83008V5.80029C2.00049 5.8002 2.00049 5.80016 2.00049 5.80012C2.00053 5.46881 2.2691 5.20024 2.60041 5.2002C2.60045 5.2002 2.6005 5.2002 2.60059 5.2002C2.60068 5.2002 2.60072 5.2002 2.60076 5.2002C2.93207 5.20024 3.20064 5.46881 3.20068 5.80012C3.20068 5.80016 3.20068 5.8002 3.20068 5.80029V6C3.20068 6.18581 3.20068 6.27872 3.22109 6.35495C3.27654 6.56212 3.43836 6.72394 3.64554 6.7794C3.72177 6.7998 3.81468 6.7998 4.00049 6.7998H4.2002C4.20029 6.7998 4.20033 6.7998 4.20037 6.7998C4.53168 6.79985 4.80025 7.06842 4.80029 7.39973C4.80029 7.39977 4.80029 7.39981 4.80029 7.3999C4.80029 7.39999 4.80029 7.40004 4.80029 7.40008C4.80025 7.73139 4.53168 7.99996 4.20037 8C4.20033 8 4.20029 8 4.2002 8H3.17041Z" fill="white"/>
</g>
<defs>
<filter id="filter0_i_1233_191" x="0" y="0" width="10" height="10" filterUnits="userSpaceOnUse" color-interpolation-filters="sRGB">
<feFlood flood-opacity="0" result="BackgroundImageFix"/>
<feBlend mode="normal" in="SourceGraphic" in2="BackgroundImageFix" result="shape"/>
<feColorMatrix in="SourceAlpha" type="matrix" values="0 0 0 0 0 0 0 0 0 0 0 0 0 0 0 0 0 0 127 0" result="hardAlpha"/>
<feOffset/>
<feGaussianBlur stdDeviation="1"/>
<feComposite in2="hardAlpha" operator="arithmetic" k2="-1" k3="1"/>
<feColorMatrix type="matrix" values="0 0 0 0 0.942 0 0 0 0 0.94 0 0 0 0 1 0 0 0 0.1 0"/>
<feBlend mode="hard-light" in2="shape" result="effect1_innerShadow_1233_191"/>
</filter>
</defs>
</svg>
