<svg width="10" height="10" viewBox="0 0 10 10" fill="none" xmlns="http://www.w3.org/2000/svg">
<g filter="url(#filter0_i_1162_440)">
<path d="M4.2998 5.39941C4.86303 5.39941 5.14444 5.40006 5.33594 5.55273C5.3769 5.5854 5.41459 5.62212 5.44727 5.66309C5.59998 5.85459 5.59961 6.1369 5.59961 6.7002C5.59961 7.26318 5.59993 7.54488 5.44727 7.73633C5.41459 7.77731 5.37692 7.814 5.33594 7.84668C5.14444 7.9994 4.86309 8 4.2998 8H3.2998C2.73653 8 2.45517 7.99938 2.26367 7.84668C2.22269 7.814 2.18502 7.77731 2.15234 7.73633C1.99967 7.54488 2 7.2632 2 6.7002C2 6.1369 1.99963 5.85459 2.15234 5.66309C2.18501 5.62213 2.22271 5.5854 2.26367 5.55273C2.45517 5.40008 2.73659 5.39941 3.2998 5.39941H4.2998ZM7.2002 6.39941C7.52781 6.39941 7.69143 6.40021 7.80762 6.48145C7.85062 6.51155 7.88884 6.5488 7.91895 6.5918C8.00015 6.70801 8 6.87252 8 7.2002C8 7.52752 8.00006 7.69146 7.91895 7.80762C7.88884 7.85062 7.85062 7.88786 7.80762 7.91797C7.69142 7.99924 7.52786 8 7.2002 8C6.87227 8 6.70802 7.99935 6.5918 7.91797C6.5489 7.88789 6.5115 7.85053 6.48145 7.80762C6.40019 7.69145 6.40039 7.5277 6.40039 7.2002C6.40039 6.87233 6.40011 6.70802 6.48145 6.5918C6.51151 6.54886 6.54888 6.51153 6.5918 6.48145C6.70802 6.40006 6.87227 6.39941 7.2002 6.39941ZM7.2002 4.2002C7.52757 4.2002 7.69145 4.20016 7.80762 4.28125C7.85059 4.31134 7.88884 4.34863 7.91895 4.3916C8.00032 4.50781 8 4.67215 8 5C8 5.32785 8.00027 5.49218 7.91895 5.6084C7.88884 5.6514 7.85062 5.68864 7.80762 5.71875C7.69144 5.79991 7.52766 5.7998 7.2002 5.7998C6.87228 5.7998 6.70802 5.80012 6.5918 5.71875C6.54886 5.68869 6.51153 5.65132 6.48145 5.6084C6.40006 5.49217 6.40039 5.32792 6.40039 5C6.40039 4.67215 6.40007 4.50781 6.48145 4.3916C6.51151 4.34875 6.54891 4.31128 6.5918 4.28125C6.70801 4.19995 6.87238 4.2002 7.2002 4.2002ZM4.2998 2C4.86285 2 5.14444 1.99982 5.33594 2.15234C5.37692 2.18502 5.41459 2.22269 5.44727 2.26367C5.59973 2.45517 5.59961 2.73682 5.59961 3.2998C5.59961 3.86282 5.59977 4.14445 5.44727 4.33594C5.41459 4.37692 5.37692 4.41459 5.33594 4.44727C5.14444 4.59975 4.86281 4.59961 4.2998 4.59961H3.2998C2.73681 4.59961 2.45517 4.59974 2.26367 4.44727C2.22269 4.41459 2.18502 4.37692 2.15234 4.33594C1.99982 4.14444 2 3.86283 2 3.2998C2 2.7368 1.99986 2.45517 2.15234 2.26367C2.18502 2.22269 2.22269 2.18502 2.26367 2.15234C2.45517 1.99984 2.73677 2 3.2998 2H4.2998ZM7.2002 2C7.52763 2 7.69145 1.99988 7.80762 2.08105C7.85049 2.11107 7.88791 2.14857 7.91797 2.19141C7.99935 2.30763 8 2.47188 8 2.7998C8 3.1277 7.99935 3.29198 7.91797 3.4082C7.88791 3.45102 7.85047 3.48855 7.80762 3.51855C7.69145 3.59971 7.52759 3.59961 7.2002 3.59961C6.87241 3.59961 6.70801 3.59983 6.5918 3.51855C6.54891 3.48853 6.51151 3.45106 6.48145 3.4082C6.40007 3.29198 6.39941 3.1277 6.39941 2.7998C6.39941 2.47188 6.40006 2.30763 6.48145 2.19141C6.51152 2.14853 6.54889 2.1111 6.5918 2.08105C6.70802 1.99975 6.87237 2 7.2002 2Z" fill="white"/>
</g>
<defs>
<filter id="filter0_i_1162_440" x="0" y="0" width="10" height="10" filterUnits="userSpaceOnUse" color-interpolation-filters="sRGB">
<feFlood flood-opacity="0" result="BackgroundImageFix"/>
<feBlend mode="normal" in="SourceGraphic" in2="BackgroundImageFix" result="shape"/>
<feColorMatrix in="SourceAlpha" type="matrix" values="0 0 0 0 0 0 0 0 0 0 0 0 0 0 0 0 0 0 127 0" result="hardAlpha"/>
<feOffset/>
<feGaussianBlur stdDeviation="1"/>
<feComposite in2="hardAlpha" operator="arithmetic" k2="-1" k3="1"/>
<feColorMatrix type="matrix" values="0 0 0 0 0.942 0 0 0 0 0.94 0 0 0 0 1 0 0 0 0.1 0"/>
<feBlend mode="hard-light" in2="shape" result="effect1_innerShadow_1162_440"/>
</filter>
</defs>
</svg>
