<svg width="10" height="10" viewBox="0 0 10 10" fill="none" xmlns="http://www.w3.org/2000/svg">
<g filter="url(#filter0_i_1164_197)">
<path d="M4.20001 2.60002C4.20001 2.2721 4.20001 2.10813 4.2814 1.99191C4.3115 1.94891 4.3489 1.91151 4.3919 1.8814C4.50813 1.80002 4.67209 1.80002 5.00001 1.80002C5.32794 1.80002 5.4919 1.80002 5.60812 1.8814C5.65112 1.91151 5.68852 1.94891 5.71863 1.99191C5.80001 2.10813 5.80001 2.2721 5.80001 2.60002C5.80001 2.92794 5.80001 3.0919 5.71863 3.20813C5.68852 3.25113 5.65112 3.28853 5.60812 3.31864C5.4919 3.40002 5.32794 3.40002 5.00001 3.40002C4.67209 3.40002 4.50813 3.40002 4.3919 3.31864C4.3489 3.28853 4.3115 3.25113 4.2814 3.20813C4.20001 3.0919 4.20001 2.92794 4.20001 2.60002Z" fill="white"/>
<path d="M4.20001 5.00002C4.20001 4.6721 4.20001 4.50814 4.28139 4.39191C4.3115 4.34891 4.3489 4.31151 4.3919 4.2814C4.50813 4.20002 4.67209 4.20002 5.00001 4.20002C5.32794 4.20002 5.4919 4.20002 5.60812 4.2814C5.65112 4.31151 5.68852 4.34891 5.71863 4.39191C5.80001 4.50814 5.80001 4.6721 5.80001 5.00002C5.80001 5.32794 5.80001 5.4919 5.71863 5.60813C5.68852 5.65113 5.65112 5.68853 5.60812 5.71864C5.4919 5.80002 5.32794 5.80002 5.00001 5.80002C4.67209 5.80002 4.50813 5.80002 4.3919 5.71864C4.3489 5.68853 4.3115 5.65113 4.28139 5.60813C4.20001 5.4919 4.20001 5.32794 4.20001 5.00002Z" fill="white"/>
<path d="M4.20001 7.40002C4.20001 7.07209 4.20001 6.90813 4.2814 6.79191C4.3115 6.74891 4.3489 6.71151 4.3919 6.6814C4.50813 6.60002 4.67209 6.60002 5.00001 6.60002C5.32794 6.60002 5.4919 6.60002 5.60812 6.6814C5.65112 6.71151 5.68852 6.74891 5.71863 6.79191C5.80001 6.90813 5.80001 7.07209 5.80001 7.40002C5.80001 7.72794 5.80001 7.8919 5.71863 8.00813C5.68852 8.05113 5.65112 8.08853 5.60812 8.11864C5.4919 8.20002 5.32794 8.20002 5.00001 8.20002C4.67209 8.20002 4.50813 8.20002 4.3919 8.11864C4.3489 8.08853 4.3115 8.05113 4.2814 8.00813C4.20001 7.8919 4.20001 7.72794 4.20001 7.40002Z" fill="white"/>
</g>
<defs>
<filter id="filter0_i_1164_197" x="0" y="0" width="10" height="10" filterUnits="userSpaceOnUse" color-interpolation-filters="sRGB">
<feFlood flood-opacity="0" result="BackgroundImageFix"/>
<feBlend mode="normal" in="SourceGraphic" in2="BackgroundImageFix" result="shape"/>
<feColorMatrix in="SourceAlpha" type="matrix" values="0 0 0 0 0 0 0 0 0 0 0 0 0 0 0 0 0 0 127 0" result="hardAlpha"/>
<feOffset/>
<feGaussianBlur stdDeviation="1"/>
<feComposite in2="hardAlpha" operator="arithmetic" k2="-1" k3="1"/>
<feColorMatrix type="matrix" values="0 0 0 0 0.942 0 0 0 0 0.94 0 0 0 0 1 0 0 0 0.1 0"/>
<feBlend mode="hard-light" in2="shape" result="effect1_innerShadow_1164_197"/>
</filter>
</defs>
</svg>
