<svg width="10" height="10" viewBox="0 0 10 10" fill="none" xmlns="http://www.w3.org/2000/svg">
<g filter="url(#filter0_i_1165_127)">
<path d="M2 3.85002C2 3.56913 2 3.42869 2.06741 3.3278C2.0966 3.28412 2.1341 3.24662 2.17777 3.21744C2.27866 3.15002 2.41911 3.15002 2.7 3.15002C2.98089 3.15002 3.12134 3.15002 3.22223 3.21744C3.2659 3.24662 3.3034 3.28412 3.33259 3.3278C3.4 3.42869 3.4 3.56913 3.4 3.85002C3.4 4.13092 3.4 4.27136 3.33259 4.37225C3.3034 4.41593 3.2659 4.45343 3.22223 4.48261C3.12134 4.55002 2.98089 4.55002 2.7 4.55002C2.41911 4.55002 2.27866 4.55002 2.17777 4.48261C2.1341 4.45343 2.0966 4.41593 2.06741 4.37225C2 4.27136 2 4.13092 2 3.85002Z" fill="white"/>
<path d="M4.30001 3.85002C4.30001 3.56913 4.30001 3.42869 4.36742 3.3278C4.39661 3.28412 4.43411 3.24662 4.47778 3.21744C4.57867 3.15002 4.71912 3.15002 5.00001 3.15002C5.2809 3.15002 5.42135 3.15002 5.52224 3.21744C5.56591 3.24662 5.60342 3.28412 5.6326 3.3278C5.70001 3.42869 5.70001 3.56913 5.70001 3.85002C5.70001 4.13092 5.70001 4.27136 5.6326 4.37225C5.60342 4.41593 5.56591 4.45343 5.52224 4.48261C5.42135 4.55002 5.2809 4.55002 5.00001 4.55002C4.71912 4.55002 4.57867 4.55002 4.47778 4.48261C4.43411 4.45343 4.39661 4.41593 4.36742 4.37225C4.30001 4.27136 4.30001 4.13092 4.30001 3.85002Z" fill="white"/>
<path d="M6.60001 3.85002C6.60001 3.56913 6.60001 3.42869 6.66742 3.3278C6.6966 3.28412 6.7341 3.24662 6.77778 3.21744C6.87867 3.15002 7.01911 3.15002 7.30001 3.15002C7.5809 3.15002 7.72134 3.15002 7.82223 3.21744C7.86591 3.24662 7.90341 3.28412 7.93259 3.3278C8.00001 3.42869 8.00001 3.56913 8.00001 3.85002C8.00001 4.13092 8.00001 4.27136 7.93259 4.37225C7.90341 4.41593 7.86591 4.45343 7.82223 4.48261C7.72134 4.55002 7.5809 4.55002 7.30001 4.55002C7.01911 4.55002 6.87867 4.55002 6.77778 4.48261C6.7341 4.45343 6.6966 4.41593 6.66742 4.37225C6.60001 4.27136 6.60001 4.13092 6.60001 3.85002Z" fill="white"/>
<path d="M2 6.14997C2 5.86908 2 5.72863 2.06741 5.62774C2.0966 5.58407 2.1341 5.54656 2.17777 5.51738C2.27866 5.44997 2.41911 5.44997 2.7 5.44997C2.98089 5.44997 3.12134 5.44997 3.22223 5.51738C3.2659 5.54656 3.3034 5.58407 3.33259 5.62774C3.4 5.72863 3.4 5.86908 3.4 6.14997C3.4 6.43086 3.4 6.57131 3.33259 6.6722C3.3034 6.71587 3.2659 6.75337 3.22223 6.78256C3.12134 6.84997 2.98089 6.84997 2.7 6.84997C2.41911 6.84997 2.27866 6.84997 2.17777 6.78256C2.1341 6.75337 2.0966 6.71587 2.06741 6.6722C2 6.57131 2 6.43086 2 6.14997Z" fill="white"/>
<path d="M4.30001 6.14997C4.30001 5.86908 4.30001 5.72863 4.36742 5.62774C4.39661 5.58407 4.43411 5.54656 4.47778 5.51738C4.57867 5.44997 4.71912 5.44997 5.00001 5.44997C5.2809 5.44997 5.42135 5.44997 5.52224 5.51738C5.56591 5.54656 5.60342 5.58407 5.6326 5.62774C5.70001 5.72863 5.70001 5.86908 5.70001 6.14997C5.70001 6.43086 5.70001 6.57131 5.6326 6.6722C5.60342 6.71587 5.56591 6.75337 5.52224 6.78256C5.42135 6.84997 5.2809 6.84997 5.00001 6.84997C4.71912 6.84997 4.57867 6.84997 4.47778 6.78256C4.43411 6.75337 4.39661 6.71587 4.36742 6.6722C4.30001 6.57131 4.30001 6.43086 4.30001 6.14997Z" fill="white"/>
<path d="M6.60001 6.14997C6.60001 5.86908 6.60001 5.72863 6.66742 5.62774C6.6966 5.58407 6.7341 5.54656 6.77778 5.51738C6.87867 5.44997 7.01911 5.44997 7.30001 5.44997C7.5809 5.44997 7.72134 5.44997 7.82223 5.51738C7.86591 5.54656 7.90341 5.58407 7.93259 5.62774C8.00001 5.72863 8.00001 5.86908 8.00001 6.14997C8.00001 6.43086 8.00001 6.57131 7.93259 6.6722C7.90341 6.71587 7.86591 6.75337 7.82223 6.78256C7.72134 6.84997 7.5809 6.84997 7.30001 6.84997C7.01911 6.84997 6.87867 6.84997 6.77778 6.78256C6.7341 6.75337 6.6966 6.71587 6.66742 6.6722C6.60001 6.57131 6.60001 6.43086 6.60001 6.14997Z" fill="white"/>
</g>
<defs>
<filter id="filter0_i_1165_127" x="0" y="0" width="10" height="10" filterUnits="userSpaceOnUse" color-interpolation-filters="sRGB">
<feFlood flood-opacity="0" result="BackgroundImageFix"/>
<feBlend mode="normal" in="SourceGraphic" in2="BackgroundImageFix" result="shape"/>
<feColorMatrix in="SourceAlpha" type="matrix" values="0 0 0 0 0 0 0 0 0 0 0 0 0 0 0 0 0 0 127 0" result="hardAlpha"/>
<feOffset/>
<feGaussianBlur stdDeviation="1"/>
<feComposite in2="hardAlpha" operator="arithmetic" k2="-1" k3="1"/>
<feColorMatrix type="matrix" values="0 0 0 0 0.942 0 0 0 0 0.94 0 0 0 0 1 0 0 0 0.1 0"/>
<feBlend mode="hard-light" in2="shape" result="effect1_innerShadow_1165_127"/>
</filter>
</defs>
</svg>
