<svg width="10" height="10" viewBox="0 0 10 10" fill="none" xmlns="http://www.w3.org/2000/svg">
<g filter="url(#filter0_i_1162_405)">
<path d="M3.25 4.7998C3.76523 4.7998 4.02315 4.79965 4.20508 4.92871C4.26928 4.97427 4.32554 5.03052 4.37109 5.09473C4.50014 5.27666 4.5 5.53458 4.5 6.0498V6.75C4.5 7.26523 4.50007 7.52313 4.37109 7.70508C4.32555 7.76927 4.26926 7.82554 4.20508 7.87109C4.02314 8.00018 3.76527 8 3.25 8C2.73481 8 2.47687 8.00004 2.29492 7.87109C2.23072 7.82554 2.17446 7.76928 2.12891 7.70508C1.9998 7.52312 2 7.26541 2 6.75V6.0498C2 5.53453 1.99982 5.27666 2.12891 5.09473C2.17444 5.03058 2.23076 4.97423 2.29492 4.92871C2.47686 4.79983 2.7349 4.7998 3.25 4.7998ZM7.09961 6.2002C7.47458 6.2002 7.66251 6.20041 7.79395 6.2959C7.83629 6.3267 7.87351 6.36388 7.9043 6.40625C7.99975 6.53764 8 6.7249 8 7.09961C8 7.47458 7.99979 7.66251 7.9043 7.79395C7.87351 7.83629 7.83629 7.87351 7.79395 7.9043C7.66251 7.99979 7.47458 8 7.09961 8H6.2998C5.92508 8 5.73785 7.99968 5.60645 7.9043C5.564 7.87346 5.52596 7.83639 5.49512 7.79395C5.39973 7.66252 5.40039 7.47445 5.40039 7.09961C5.40039 6.72515 5.39985 6.53762 5.49512 6.40625C5.52596 6.3638 5.564 6.32674 5.60645 6.2959C5.73785 6.20045 5.92499 6.2002 6.2998 6.2002H7.09961ZM6.75 2C7.26528 2 7.52314 1.99981 7.70508 2.12891C7.76927 2.17446 7.82555 2.23073 7.87109 2.29492C8.00008 2.47687 8 2.73476 8 3.25V3.9502C8 4.46542 8.00015 4.72334 7.87109 4.90527C7.82554 4.96948 7.76928 5.02573 7.70508 5.07129C7.52314 5.20034 7.26523 5.2002 6.75 5.2002C6.23488 5.2002 5.97686 5.20018 5.79492 5.07129C5.73076 5.02576 5.67445 4.96943 5.62891 4.90527C5.49981 4.72334 5.5 4.46548 5.5 3.9502V3.25C5.5 2.7346 5.4998 2.47688 5.62891 2.29492C5.67446 2.23072 5.73072 2.17446 5.79492 2.12891C5.97687 1.99995 6.2348 2 6.75 2ZM3.59961 2C3.97458 2 4.16251 2.00021 4.29395 2.0957C4.33627 2.1265 4.37353 2.16371 4.4043 2.20605C4.49979 2.33749 4.5 2.52542 4.5 2.90039C4.5 3.27502 4.49969 3.46237 4.4043 3.59375C4.37354 3.63608 4.33624 3.67331 4.29395 3.7041C4.16251 3.79959 3.97458 3.7998 3.59961 3.7998H2.89941C2.5247 3.7998 2.33744 3.79956 2.20605 3.7041C2.16368 3.6733 2.12651 3.63612 2.0957 3.59375C2.00025 3.46236 2 3.2751 2 2.90039C2 2.52542 2.00021 2.33749 2.0957 2.20605C2.12651 2.1637 2.16369 2.12649 2.20605 2.0957C2.33744 2.00024 2.5247 2 2.89941 2H3.59961Z" fill="white"/>
</g>
<defs>
<filter id="filter0_i_1162_405" x="0" y="0" width="10" height="10" filterUnits="userSpaceOnUse" color-interpolation-filters="sRGB">
<feFlood flood-opacity="0" result="BackgroundImageFix"/>
<feBlend mode="normal" in="SourceGraphic" in2="BackgroundImageFix" result="shape"/>
<feColorMatrix in="SourceAlpha" type="matrix" values="0 0 0 0 0 0 0 0 0 0 0 0 0 0 0 0 0 0 127 0" result="hardAlpha"/>
<feOffset/>
<feGaussianBlur stdDeviation="1"/>
<feComposite in2="hardAlpha" operator="arithmetic" k2="-1" k3="1"/>
<feColorMatrix type="matrix" values="0 0 0 0 0.942 0 0 0 0 0.94 0 0 0 0 1 0 0 0 0.1 0"/>
<feBlend mode="hard-light" in2="shape" result="effect1_innerShadow_1162_405"/>
</filter>
</defs>
</svg>
