<svg width="10" height="10" viewBox="0 0 10 10" fill="none" xmlns="http://www.w3.org/2000/svg">
<g filter="url(#filter0_i_1134_3129)">
<path d="M1.8 5.00001C1.8 4.67209 1.8 4.50813 1.88138 4.3919C1.91149 4.3489 1.94889 4.3115 1.99189 4.28139C2.10812 4.20001 2.27208 4.20001 2.6 4.20001C2.92793 4.20001 3.09189 4.20001 3.20811 4.28139C3.25111 4.3115 3.28851 4.3489 3.31862 4.3919C3.4 4.50813 3.4 4.67209 3.4 5.00001C3.4 5.32794 3.4 5.4919 3.31862 5.60812C3.28851 5.65112 3.25111 5.68852 3.20811 5.71863C3.09189 5.80001 2.92793 5.80001 2.6 5.80001C2.27208 5.80001 2.10812 5.80001 1.99189 5.71863C1.94889 5.68852 1.91149 5.65112 1.88138 5.60812C1.8 5.4919 1.8 5.32794 1.8 5.00001Z" fill="white"/>
<path d="M4.20001 5.00001C4.20001 4.67209 4.20001 4.50813 4.2814 4.3919C4.3115 4.3489 4.3489 4.3115 4.3919 4.28139C4.50813 4.20001 4.67209 4.20001 5.00001 4.20001C5.32794 4.20001 5.4919 4.20001 5.60812 4.28139C5.65112 4.3115 5.68852 4.3489 5.71863 4.3919C5.80001 4.50813 5.80001 4.67209 5.80001 5.00001C5.80001 5.32794 5.80001 5.4919 5.71863 5.60812C5.68852 5.65112 5.65112 5.68852 5.60812 5.71863C5.4919 5.80001 5.32794 5.80001 5.00001 5.80001C4.67209 5.80001 4.50813 5.80001 4.3919 5.71863C4.3489 5.68852 4.3115 5.65112 4.2814 5.60812C4.20001 5.4919 4.20001 5.32794 4.20001 5.00001Z" fill="white"/>
<path d="M6.60001 5.00001C6.60001 4.67209 6.60001 4.50813 6.68139 4.3919C6.7115 4.3489 6.7489 4.3115 6.7919 4.28139C6.90812 4.20001 7.07209 4.20001 7.40001 4.20001C7.72793 4.20001 7.89189 4.20001 8.00812 4.28139C8.05112 4.3115 8.08852 4.3489 8.11863 4.3919C8.20001 4.50813 8.20001 4.67209 8.20001 5.00001C8.20001 5.32794 8.20001 5.4919 8.11863 5.60812C8.08852 5.65112 8.05112 5.68852 8.00812 5.71863C7.89189 5.80001 7.72793 5.80001 7.40001 5.80001C7.07209 5.80001 6.90812 5.80001 6.7919 5.71863C6.7489 5.68852 6.7115 5.65112 6.68139 5.60812C6.60001 5.4919 6.60001 5.32794 6.60001 5.00001Z" fill="white"/>
</g>
<defs>
<filter id="filter0_i_1134_3129" x="0" y="0" width="10" height="10" filterUnits="userSpaceOnUse" color-interpolation-filters="sRGB">
<feFlood flood-opacity="0" result="BackgroundImageFix"/>
<feBlend mode="normal" in="SourceGraphic" in2="BackgroundImageFix" result="shape"/>
<feColorMatrix in="SourceAlpha" type="matrix" values="0 0 0 0 0 0 0 0 0 0 0 0 0 0 0 0 0 0 127 0" result="hardAlpha"/>
<feOffset/>
<feGaussianBlur stdDeviation="1"/>
<feComposite in2="hardAlpha" operator="arithmetic" k2="-1" k3="1"/>
<feColorMatrix type="matrix" values="0 0 0 0 0.942 0 0 0 0 0.94 0 0 0 0 1 0 0 0 0.1 0"/>
<feBlend mode="hard-light" in2="shape" result="effect1_innerShadow_1134_3129"/>
</filter>
</defs>
</svg>
