<svg width="10" height="10" viewBox="0 0 10 10" fill="none" xmlns="http://www.w3.org/2000/svg">
<g filter="url(#filter0_i_1093_28)">
<path fill-rule="evenodd" clip-rule="evenodd" d="M6.66558 2.52541C6.86085 2.33015 7.17735 2.33015 7.37261 2.52541C7.5678 2.72068 7.56785 3.03721 7.37261 3.23245L7.21482 3.38987C7.0814 3.52298 7.10312 3.74442 7.24567 3.8677C7.56928 4.14755 7.78448 4.44901 7.91461 4.67092C8.03487 4.87607 8.03487 5.12397 7.91461 5.32912C7.59573 5.87294 6.76939 6.90022 5.07867 6.90041C4.70662 6.90039 4.37162 6.8493 4.07081 6.76547C3.9611 6.7349 3.84223 6.76192 3.76175 6.8425L3.13043 7.47463C2.93519 7.66987 2.61866 7.66982 2.4234 7.47463C2.22813 7.27937 2.22813 6.96286 2.4234 6.7676L2.71109 6.47938C2.84146 6.34877 2.82342 6.13293 2.68481 6.0111C2.44181 5.79751 2.25763 5.58007 2.1275 5.40139C1.95112 5.15907 1.95111 4.84097 2.1275 4.59866C2.5335 4.04119 3.45984 3.09972 5.07867 3.09963C5.34504 3.09966 5.58996 3.12581 5.81481 3.17116C5.91844 3.19207 6.02685 3.16324 6.10166 3.08854L6.66558 2.52541ZM4.81896 5.78512C4.66651 5.93758 4.72512 6.19369 4.94064 6.19972C4.95243 6.20005 4.96426 6.20022 4.97613 6.20022C5.69396 6.20022 6.2757 5.61819 6.27594 4.90041C6.27594 4.88865 6.27577 4.87692 6.27545 4.86524C6.2695 4.64964 6.01313 4.59095 5.86062 4.74346L4.81896 5.78512ZM4.97613 3.59963C4.25832 3.59981 3.67633 4.18256 3.67633 4.90041C3.67633 4.92721 3.67715 4.95382 3.67874 4.98022C3.69156 5.19228 3.94348 5.24654 4.0937 5.09632L5.17219 4.01783C5.32237 3.86765 5.26835 3.61521 5.05637 3.60211C5.02983 3.60047 5.00308 3.59963 4.97613 3.59963Z" fill="white"/>
</g>
<defs>
<filter id="filter0_i_1093_28" x="0" y="0" width="10" height="10" filterUnits="userSpaceOnUse" color-interpolation-filters="sRGB">
<feFlood flood-opacity="0" result="BackgroundImageFix"/>
<feBlend mode="normal" in="SourceGraphic" in2="BackgroundImageFix" result="shape"/>
<feColorMatrix in="SourceAlpha" type="matrix" values="0 0 0 0 0 0 0 0 0 0 0 0 0 0 0 0 0 0 127 0" result="hardAlpha"/>
<feOffset/>
<feGaussianBlur stdDeviation="1"/>
<feComposite in2="hardAlpha" operator="arithmetic" k2="-1" k3="1"/>
<feColorMatrix type="matrix" values="0 0 0 0 0.942 0 0 0 0 0.94 0 0 0 0 1 0 0 0 0.1 0"/>
<feBlend mode="hard-light" in2="shape" result="effect1_innerShadow_1093_28"/>
</filter>
</defs>
</svg>
