<svg width="10" height="10" viewBox="0 0 10 10" fill="none" xmlns="http://www.w3.org/2000/svg">
<g filter="url(#filter0_i_1214_610)">
<path d="M5 7.99999C4.72905 7.99999 4.51429 7.77138 4.53119 7.50096L4.57505 6.79921C4.58907 6.57481 4.77516 6.39999 5 6.39999C5.22484 6.39999 5.41092 6.57481 5.42495 6.79921L5.46881 7.50096C5.48571 7.77138 5.27095 7.99999 5 7.99999Z" fill="white"/>
<path d="M6.4 4.99999C6.4 4.77515 6.57482 4.58907 6.79922 4.57504L7.50098 4.53118C7.7714 4.51428 8 4.72905 8 4.99999C8 5.27094 7.7714 5.48571 7.50098 5.4688L6.79922 5.42494C6.57482 5.41092 6.4 5.22483 6.4 4.99999Z" fill="white"/>
<path d="M2 4.99999C2 4.72905 2.22861 4.51428 2.49903 4.53118L3.20078 4.57504C3.42518 4.58907 3.6 4.77515 3.6 4.99999C3.6 5.22483 3.42518 5.41092 3.20078 5.42494L2.49903 5.4688C2.22861 5.48571 2 5.27094 2 4.99999Z" fill="white"/>
<path d="M5 3.6C4.77516 3.6 4.58907 3.42518 4.57505 3.20078L4.53119 2.49903C4.51429 2.22861 4.72905 2 5 2C5.27095 2 5.48571 2.22861 5.46881 2.49903L5.42495 3.20078C5.41092 3.42518 5.22484 3.6 5 3.6Z" fill="white"/>
<path d="M5.99019 5.98977C6.14917 5.83079 6.40437 5.82282 6.57297 5.97158L7.10019 6.43678C7.30336 6.61604 7.31315 6.92955 7.12156 7.12114C6.92997 7.31273 6.61646 7.30294 6.4372 7.09978L5.972 6.57255C5.82324 6.40395 5.8312 6.14876 5.99019 5.98977Z" fill="white"/>
<path d="M2.87892 7.12112C2.68733 6.92953 2.69712 6.61602 2.90028 6.43675L3.42751 5.97155C3.5961 5.82279 3.8513 5.83076 4.01029 5.98975C4.16927 6.14873 4.17724 6.40393 4.02848 6.57252L3.56328 7.09975C3.38402 7.30292 3.07051 7.31271 2.87892 7.12112Z" fill="white"/>
<path d="M2.87897 2.87855C3.07056 2.68696 3.38407 2.69675 3.56333 2.89991L4.02853 3.42714C4.17729 3.59573 4.16932 3.85093 4.01034 4.00992C3.85135 4.1689 3.59615 4.17687 3.42756 4.02811L2.90033 3.56291C2.69717 3.38365 2.68738 3.07014 2.87897 2.87855Z" fill="white"/>
</g>
<defs>
<filter id="filter0_i_1214_610" x="0" y="0" width="10" height="10" filterUnits="userSpaceOnUse" color-interpolation-filters="sRGB">
<feFlood flood-opacity="0" result="BackgroundImageFix"/>
<feBlend mode="normal" in="SourceGraphic" in2="BackgroundImageFix" result="shape"/>
<feColorMatrix in="SourceAlpha" type="matrix" values="0 0 0 0 0 0 0 0 0 0 0 0 0 0 0 0 0 0 127 0" result="hardAlpha"/>
<feOffset/>
<feGaussianBlur stdDeviation="1"/>
<feComposite in2="hardAlpha" operator="arithmetic" k2="-1" k3="1"/>
<feColorMatrix type="matrix" values="0 0 0 0 0.942 0 0 0 0 0.94 0 0 0 0 1 0 0 0 0.1 0"/>
<feBlend mode="hard-light" in2="shape" result="effect1_innerShadow_1214_610"/>
</filter>
</defs>
</svg>
