<svg width="10" height="10" viewBox="0 0 10 10" fill="none" xmlns="http://www.w3.org/2000/svg">
<g filter="url(#filter0_i_1214_621)">
<path d="M7.12134 7.12131C6.88702 7.35563 6.50712 7.35563 6.27281 7.12131C6.03849 6.887 6.03849 6.5071 6.27281 6.27278C6.50712 6.03847 6.88702 6.03847 7.12134 6.27278C7.35565 6.5071 7.35565 6.887 7.12134 7.12131Z" fill="white"/>
<path d="M6.27282 3.7272C6.0385 3.49289 6.0385 3.11299 6.27282 2.87867C6.50713 2.64436 6.88703 2.64436 7.12134 2.87867C7.35566 3.11299 7.35566 3.49289 7.12134 3.7272C6.88703 3.96152 6.50713 3.96152 6.27282 3.7272Z" fill="white"/>
<path d="M2.8787 7.12132C2.64439 6.887 2.64439 6.5071 2.8787 6.27279C3.11302 6.03847 3.49291 6.03847 3.72723 6.27279C3.96154 6.5071 3.96154 6.887 3.72723 7.12132C3.49291 7.35563 3.11302 7.35563 2.8787 7.12132Z" fill="white"/>
<path d="M3.72723 3.72721C3.49292 3.96152 3.11302 3.96152 2.8787 3.72721C2.64439 3.49289 2.64439 3.113 2.8787 2.87868C3.11302 2.64437 3.49292 2.64437 3.72723 2.87868C3.96155 3.113 3.96155 3.49289 3.72723 3.72721Z" fill="white"/>
<path d="M6.80007 4.9997C6.80007 4.66833 7.0687 4.3997 7.40007 4.3997C7.73144 4.3997 8.00007 4.66833 8.00007 4.9997C8.00007 5.33107 7.73144 5.5997 7.40007 5.5997C7.0687 5.5997 6.80007 5.33107 6.80007 4.9997Z" fill="white"/>
<path d="M5.00005 7.99969C4.66868 7.99969 4.40005 7.73106 4.40005 7.39969C4.40005 7.06832 4.66868 6.79969 5.00005 6.79969C5.33142 6.79969 5.60005 7.06832 5.60005 7.39969C5.60005 7.73106 5.33142 7.99969 5.00005 7.99969Z" fill="white"/>
<path d="M2.00014 4.9997C2.00014 4.66833 2.26877 4.3997 2.60014 4.3997C2.93151 4.3997 3.20014 4.66833 3.20014 4.9997C3.20014 5.33107 2.93151 5.5997 2.60014 5.5997C2.26877 5.5997 2.00014 5.33107 2.00014 4.9997Z" fill="white"/>
<path d="M5.00005 3.1997C4.66868 3.1997 4.40005 2.93107 4.40005 2.5997C4.40005 2.26832 4.66868 1.9997 5.00005 1.9997C5.33142 1.9997 5.60005 2.26833 5.60005 2.5997C5.60005 2.93107 5.33142 3.1997 5.00005 3.1997Z" fill="white"/>
</g>
<defs>
<filter id="filter0_i_1214_621" x="0" y="0" width="10" height="10" filterUnits="userSpaceOnUse" color-interpolation-filters="sRGB">
<feFlood flood-opacity="0" result="BackgroundImageFix"/>
<feBlend mode="normal" in="SourceGraphic" in2="BackgroundImageFix" result="shape"/>
<feColorMatrix in="SourceAlpha" type="matrix" values="0 0 0 0 0 0 0 0 0 0 0 0 0 0 0 0 0 0 127 0" result="hardAlpha"/>
<feOffset/>
<feGaussianBlur stdDeviation="1"/>
<feComposite in2="hardAlpha" operator="arithmetic" k2="-1" k3="1"/>
<feColorMatrix type="matrix" values="0 0 0 0 0.942 0 0 0 0 0.94 0 0 0 0 1 0 0 0 0.1 0"/>
<feBlend mode="hard-light" in2="shape" result="effect1_innerShadow_1214_621"/>
</filter>
</defs>
</svg>
