<svg width="10" height="10" viewBox="0 0 10 10" fill="none" xmlns="http://www.w3.org/2000/svg">
<g filter="url(#filter0_i_1214_623)">
<path d="M5.00003 7.99999C4.66866 7.99999 4.40003 7.73136 4.40003 7.39999C4.40003 7.06862 4.66866 6.79999 5.00003 6.79999C5.3314 6.79999 5.60003 7.06862 5.60003 7.39999C5.60003 7.73136 5.3314 7.99999 5.00003 7.99999Z" fill="white"/>
<path d="M6.80003 4.99999C6.80003 4.66862 7.06866 4.39999 7.40003 4.39999C7.7314 4.39999 8.00003 4.66862 8.00003 4.99999C8.00003 5.33136 7.7314 5.59999 7.40003 5.59999C7.06866 5.59999 6.80003 5.33136 6.80003 4.99999Z" fill="white"/>
<path d="M2.00003 4.99999C2.00003 4.66862 2.26866 4.39999 2.60003 4.39999C2.9314 4.39999 3.20003 4.66862 3.20003 4.99999C3.20003 5.33136 2.9314 5.59999 2.60003 5.59999C2.26866 5.59999 2.00003 5.33136 2.00003 4.99999Z" fill="white"/>
<path d="M5.00003 3.2C4.66866 3.2 4.40003 2.93137 4.40003 2.6C4.40003 2.26863 4.66866 2 5.00003 2C5.3314 2 5.60003 2.26863 5.60003 2.6C5.60003 2.93137 5.3314 3.2 5.00003 3.2Z" fill="white"/>
<path d="M6.27306 6.27261C6.50738 6.0383 6.88728 6.0383 7.12159 6.27261C7.3559 6.50693 7.3559 6.88683 7.12159 7.12114C6.88728 7.35545 6.50738 7.35545 6.27306 7.12114C6.03875 6.88683 6.03875 6.50693 6.27306 6.27261Z" fill="white"/>
<path d="M2.87895 7.12112C2.64463 6.8868 2.64463 6.5069 2.87895 6.27259C3.11326 6.03827 3.49316 6.03827 3.72748 6.27259C3.96179 6.5069 3.96179 6.8868 3.72748 7.12112C3.49316 7.35543 3.11326 7.35543 2.87895 7.12112Z" fill="white"/>
<path d="M2.879 2.87855C3.11331 2.64423 3.49321 2.64423 3.72753 2.87855C3.96184 3.11286 3.96184 3.49276 3.72753 3.72708C3.49321 3.96139 3.11331 3.96139 2.879 3.72708C2.64468 3.49276 2.64468 3.11286 2.879 2.87855Z" fill="white"/>
</g>
<defs>
<filter id="filter0_i_1214_623" x="0" y="0" width="10" height="10" filterUnits="userSpaceOnUse" color-interpolation-filters="sRGB">
<feFlood flood-opacity="0" result="BackgroundImageFix"/>
<feBlend mode="normal" in="SourceGraphic" in2="BackgroundImageFix" result="shape"/>
<feColorMatrix in="SourceAlpha" type="matrix" values="0 0 0 0 0 0 0 0 0 0 0 0 0 0 0 0 0 0 127 0" result="hardAlpha"/>
<feOffset/>
<feGaussianBlur stdDeviation="1"/>
<feComposite in2="hardAlpha" operator="arithmetic" k2="-1" k3="1"/>
<feColorMatrix type="matrix" values="0 0 0 0 0.942 0 0 0 0 0.94 0 0 0 0 1 0 0 0 0.1 0"/>
<feBlend mode="hard-light" in2="shape" result="effect1_innerShadow_1214_623"/>
</filter>
</defs>
</svg>
