<svg width="10" height="10" viewBox="0 0 10 10" fill="none" xmlns="http://www.w3.org/2000/svg">
<g filter="url(#filter0_i_1079_296)">
<path d="M5.00049 1.9751C6.02195 1.97541 6.8501 2.80415 6.8501 3.82568V4.02184C6.8501 4.16166 6.8501 4.23156 6.87522 4.28329C6.88054 4.29424 6.88093 4.29494 6.88732 4.3053C6.9175 4.35424 7.02953 4.42541 7.25359 4.56775C7.2768 4.58249 7.29881 4.59875 7.31982 4.6167C7.35167 4.64391 7.38149 4.67372 7.40869 4.70557C7.60022 4.92996 7.6001 5.2684 7.6001 5.94482V6.50537C7.6001 7.1818 7.60021 7.52023 7.40869 7.74463C7.38149 7.77648 7.35167 7.80629 7.31982 7.8335C7.09545 8.02513 6.75701 8.0249 6.08057 8.0249H3.92041C3.24365 8.0249 2.9046 8.02517 2.68018 7.8335C2.64838 7.80632 2.61847 7.77644 2.59131 7.74463C2.39987 7.52023 2.3999 7.1817 2.3999 6.50537V5.94482C2.3999 5.2685 2.39986 4.92996 2.59131 4.70557C2.61848 4.67375 2.64837 4.64388 2.68018 4.6167C2.70119 4.59875 2.72322 4.58248 2.74644 4.56774C2.97046 4.42549 3.08247 4.35437 3.11267 4.30542C3.11906 4.29506 3.11945 4.29435 3.12477 4.2834C3.1499 4.23167 3.1499 4.16174 3.1499 4.02188V3.82568C3.1499 2.80396 3.97876 1.9751 5.00049 1.9751ZM4.80029 5.74951C4.46892 5.74951 4.19971 6.01873 4.19971 6.3501C4.19987 6.68133 4.46902 6.94971 4.80029 6.94971H5.19971C5.53098 6.94971 5.80013 6.68133 5.80029 6.3501C5.80029 6.01873 5.53108 5.74951 5.19971 5.74951H4.80029ZM5.00049 2.87549C4.47582 2.87549 4.05029 3.30101 4.05029 3.82568V3.95029C4.05029 4.16178 4.05029 4.26752 4.11019 4.33766C4.1187 4.34761 4.12797 4.35689 4.13793 4.36539C4.20806 4.42529 4.31381 4.42529 4.52529 4.42529H5.47471C5.68619 4.42529 5.79194 4.42529 5.86207 4.36539C5.87203 4.35689 5.8813 4.34761 5.88981 4.33766C5.94971 4.26752 5.94971 4.16178 5.94971 3.95029V3.82568C5.94971 3.3012 5.52489 2.8758 5.00049 2.87549Z" fill="white"/>
</g>
<defs>
<filter id="filter0_i_1079_296" x="0" y="0" width="10" height="10" filterUnits="userSpaceOnUse" color-interpolation-filters="sRGB">
<feFlood flood-opacity="0" result="BackgroundImageFix"/>
<feBlend mode="normal" in="SourceGraphic" in2="BackgroundImageFix" result="shape"/>
<feColorMatrix in="SourceAlpha" type="matrix" values="0 0 0 0 0 0 0 0 0 0 0 0 0 0 0 0 0 0 127 0" result="hardAlpha"/>
<feOffset/>
<feGaussianBlur stdDeviation="1"/>
<feComposite in2="hardAlpha" operator="arithmetic" k2="-1" k3="1"/>
<feColorMatrix type="matrix" values="0 0 0 0 0.942 0 0 0 0 0.94 0 0 0 0 1 0 0 0 0.1 0"/>
<feBlend mode="hard-light" in2="shape" result="effect1_innerShadow_1079_296"/>
</filter>
</defs>
</svg>
