<svg width="10" height="10" viewBox="0 0 10 10" fill="none" xmlns="http://www.w3.org/2000/svg">
<g filter="url(#filter0_i_1164_207)">
<path d="M5.60059 6.60059C5.93168 6.60091 6.2002 6.86902 6.2002 7.2002C6.2001 7.53129 5.93163 7.79949 5.60059 7.7998H4.40039C4.06908 7.7998 3.80088 7.53148 3.80078 7.2002C3.80078 6.86882 4.06902 6.60059 4.40039 6.60059H5.60059ZM6.60059 4.40039C6.93169 4.40071 7.2002 4.66882 7.2002 5C7.20019 5.33117 6.93169 5.59929 6.60059 5.59961H3.40039C3.06902 5.59961 2.80078 5.33137 2.80078 5C2.80078 4.66863 3.06902 4.40039 3.40039 4.40039H6.60059ZM7.39941 2.2002C7.73073 2.2002 7.9999 2.46852 8 2.7998C8 3.13118 7.73078 3.39941 7.39941 3.39941H2.59961C2.26842 3.3992 2 3.13105 2 2.7998C2.0001 2.46864 2.26848 2.20041 2.59961 2.2002H7.39941Z" fill="white"/>
</g>
<defs>
<filter id="filter0_i_1164_207" x="0" y="0" width="10" height="10" filterUnits="userSpaceOnUse" color-interpolation-filters="sRGB">
<feFlood flood-opacity="0" result="BackgroundImageFix"/>
<feBlend mode="normal" in="SourceGraphic" in2="BackgroundImageFix" result="shape"/>
<feColorMatrix in="SourceAlpha" type="matrix" values="0 0 0 0 0 0 0 0 0 0 0 0 0 0 0 0 0 0 127 0" result="hardAlpha"/>
<feOffset/>
<feGaussianBlur stdDeviation="1"/>
<feComposite in2="hardAlpha" operator="arithmetic" k2="-1" k3="1"/>
<feColorMatrix type="matrix" values="0 0 0 0 0.942 0 0 0 0 0.94 0 0 0 0 1 0 0 0 0.1 0"/>
<feBlend mode="hard-light" in2="shape" result="effect1_innerShadow_1164_207"/>
</filter>
</defs>
</svg>
