<svg width="10" height="10" viewBox="0 0 10 10" fill="none" xmlns="http://www.w3.org/2000/svg">
<g filter="url(#filter0_i_1165_75)">
<path d="M7.39941 6.60059C7.73075 6.60059 7.99994 6.86888 8 7.2002C8 7.53157 7.73078 7.7998 7.39941 7.7998H2.59961C2.26841 7.7996 2 7.53144 2 7.2002C2.00006 6.86901 2.26845 6.60079 2.59961 6.60059H7.39941ZM4 4.40039C4.3311 4.4006 4.59945 4.66889 4.59961 5C4.59961 5.33124 4.33119 5.5994 4 5.59961H2.59961C2.26842 5.5994 2 5.33124 2 5C2.00016 4.66889 2.26851 4.4006 2.59961 4.40039H4ZM5.59668 2.60449C5.76 2.38188 6.07324 2.33379 6.2959 2.49707L7.79004 3.59277C8.08069 3.80626 8.0601 4.24686 7.75098 4.43262L6.25684 5.3291C6.02011 5.4709 5.71332 5.39386 5.57129 5.15723C5.42947 4.92049 5.50651 4.61371 5.74316 4.47168C6.04554 4.28991 6.19673 4.19902 6.24682 4.07476C6.28081 3.99042 6.28506 3.89701 6.25885 3.80993C6.22023 3.68164 6.0779 3.57742 5.79325 3.36899L5.7041 3.30371C5.48151 3.14041 5.43345 2.82714 5.59668 2.60449ZM4 2.2002C4.33104 2.2004 4.59935 2.46878 4.59961 2.7998C4.59961 3.13105 4.33119 3.3992 4 3.39941H2.59961C2.26842 3.3992 2 3.13105 2 2.7998C2.00025 2.46878 2.26857 2.2004 2.59961 2.2002H4Z" fill="white"/>
</g>
<defs>
<filter id="filter0_i_1165_75" x="0" y="0" width="10" height="10" filterUnits="userSpaceOnUse" color-interpolation-filters="sRGB">
<feFlood flood-opacity="0" result="BackgroundImageFix"/>
<feBlend mode="normal" in="SourceGraphic" in2="BackgroundImageFix" result="shape"/>
<feColorMatrix in="SourceAlpha" type="matrix" values="0 0 0 0 0 0 0 0 0 0 0 0 0 0 0 0 0 0 127 0" result="hardAlpha"/>
<feOffset/>
<feGaussianBlur stdDeviation="1"/>
<feComposite in2="hardAlpha" operator="arithmetic" k2="-1" k3="1"/>
<feColorMatrix type="matrix" values="0 0 0 0 0.942 0 0 0 0 0.94 0 0 0 0 1 0 0 0 0.1 0"/>
<feBlend mode="hard-light" in2="shape" result="effect1_innerShadow_1165_75"/>
</filter>
</defs>
</svg>
