<svg width="10" height="10" viewBox="0 0 10 10" fill="none" xmlns="http://www.w3.org/2000/svg">
<g filter="url(#filter0_i_1165_69)">
<path d="M5.59961 6.60059C5.93098 6.60059 6.19922 6.86882 6.19922 7.2002C6.19918 7.53154 5.93096 7.7998 5.59961 7.7998H2.59961C2.26839 7.79965 2.00004 7.53144 2 7.2002C2 6.86892 2.26837 6.60074 2.59961 6.60059H5.59961ZM7.39941 4.40039C7.73078 4.40039 8 4.66863 8 5C7.99994 5.33132 7.73075 5.59961 7.39941 5.59961H2.59961C2.26845 5.5994 2.00006 5.33119 2 5C2 4.66876 2.26841 4.4006 2.59961 4.40039H7.39941ZM7.39941 2.2002C7.73073 2.2002 7.9999 2.46852 8 2.7998C8 3.13118 7.73078 3.39941 7.39941 3.39941H2.59961C2.26842 3.3992 2 3.13105 2 2.7998C2.0001 2.46864 2.26848 2.20041 2.59961 2.2002H7.39941Z" fill="white"/>
</g>
<defs>
<filter id="filter0_i_1165_69" x="0" y="0" width="10" height="10" filterUnits="userSpaceOnUse" color-interpolation-filters="sRGB">
<feFlood flood-opacity="0" result="BackgroundImageFix"/>
<feBlend mode="normal" in="SourceGraphic" in2="BackgroundImageFix" result="shape"/>
<feColorMatrix in="SourceAlpha" type="matrix" values="0 0 0 0 0 0 0 0 0 0 0 0 0 0 0 0 0 0 127 0" result="hardAlpha"/>
<feOffset/>
<feGaussianBlur stdDeviation="1"/>
<feComposite in2="hardAlpha" operator="arithmetic" k2="-1" k3="1"/>
<feColorMatrix type="matrix" values="0 0 0 0 0.942 0 0 0 0 0.94 0 0 0 0 1 0 0 0 0.1 0"/>
<feBlend mode="hard-light" in2="shape" result="effect1_innerShadow_1165_69"/>
</filter>
</defs>
</svg>
