<svg width="10" height="10" viewBox="0 0 10 10" fill="none" xmlns="http://www.w3.org/2000/svg">
<g filter="url(#filter0_i_1164_230)">
<path d="M5.19873 6.54102C5.5301 6.54102 5.79932 6.80925 5.79932 7.14062C5.79922 7.47191 5.53004 7.74023 5.19873 7.74023H2.59912C2.26798 7.74004 1.99961 7.47179 1.99951 7.14062C1.99951 6.80937 2.26791 6.54121 2.59912 6.54102H5.19873ZM6.39893 4.43457C6.7303 4.43457 6.99951 4.70281 6.99951 5.03418C6.99951 5.36555 6.7303 5.63379 6.39893 5.63379H3.79932C3.46813 5.63357 3.19971 5.36542 3.19971 5.03418C3.19971 4.70294 3.46813 4.43478 3.79932 4.43457H6.39893ZM7.3999 2.25977C7.73118 2.25988 8.00049 2.52808 8.00049 2.85938C8.00037 3.19058 7.7311 3.45887 7.3999 3.45898H4.80029C4.46899 3.45898 4.2008 3.19065 4.20068 2.85938C4.20068 2.528 4.46892 2.25977 4.80029 2.25977H7.3999Z" fill="white"/>
</g>
<defs>
<filter id="filter0_i_1164_230" x="0" y="0" width="10" height="10" filterUnits="userSpaceOnUse" color-interpolation-filters="sRGB">
<feFlood flood-opacity="0" result="BackgroundImageFix"/>
<feBlend mode="normal" in="SourceGraphic" in2="BackgroundImageFix" result="shape"/>
<feColorMatrix in="SourceAlpha" type="matrix" values="0 0 0 0 0 0 0 0 0 0 0 0 0 0 0 0 0 0 127 0" result="hardAlpha"/>
<feOffset/>
<feGaussianBlur stdDeviation="1"/>
<feComposite in2="hardAlpha" operator="arithmetic" k2="-1" k3="1"/>
<feColorMatrix type="matrix" values="0 0 0 0 0.942 0 0 0 0 0.94 0 0 0 0 1 0 0 0 0.1 0"/>
<feBlend mode="hard-light" in2="shape" result="effect1_innerShadow_1164_230"/>
</filter>
</defs>
</svg>
