<svg width="10" height="10" viewBox="0 0 10 10" fill="none" xmlns="http://www.w3.org/2000/svg">
<g filter="url(#filter0_i_1134_3119)">
<path d="M3.00049 6.60059C3.33165 6.60083 3.6001 6.86898 3.6001 7.2002C3.60007 7.53139 3.33163 7.79956 3.00049 7.7998H2.6001C2.26875 7.7998 2.00052 7.53154 2.00049 7.2002C2.00049 6.86882 2.26873 6.60059 2.6001 6.60059H3.00049ZM7.3999 6.60059C7.73118 6.6007 7.99951 6.86889 7.99951 7.2002C7.99947 7.53146 7.73115 7.79969 7.3999 7.7998H5.19971C4.86852 7.79962 4.60014 7.53141 4.6001 7.2002C4.6001 6.86894 4.86849 6.60077 5.19971 6.60059H7.3999ZM3.00049 4.40039C3.3316 4.40064 3.60002 4.66885 3.6001 5C3.6001 5.33122 3.33165 5.59936 3.00049 5.59961H2.6001C2.26873 5.59961 2.00049 5.33137 2.00049 5C2.00057 4.6687 2.26878 4.40039 2.6001 4.40039H3.00049ZM7.3999 4.40039C7.73114 4.4005 7.99945 4.66874 7.99951 5C7.99951 5.3313 7.73118 5.5995 7.3999 5.59961H5.19971C4.86849 5.59943 4.6001 5.33126 4.6001 5C4.60017 4.66881 4.86854 4.40058 5.19971 4.40039H7.3999ZM3.00049 2.2002C3.33155 2.20044 3.59994 2.46872 3.6001 2.7998C3.6001 3.13102 3.33165 3.39917 3.00049 3.39941H2.6001C2.26873 3.39941 2.00049 3.13118 2.00049 2.7998C2.00065 2.46857 2.26883 2.2002 2.6001 2.2002H3.00049ZM7.3999 2.2002C7.73108 2.2003 7.99935 2.46864 7.99951 2.7998C7.99951 3.13111 7.73118 3.39931 7.3999 3.39941H5.19971C4.86849 3.39923 4.6001 3.13106 4.6001 2.7998C4.60027 2.4687 4.8686 2.20038 5.19971 2.2002H7.3999Z" fill="white"/>
</g>
<defs>
<filter id="filter0_i_1134_3119" x="0" y="0" width="10" height="10" filterUnits="userSpaceOnUse" color-interpolation-filters="sRGB">
<feFlood flood-opacity="0" result="BackgroundImageFix"/>
<feBlend mode="normal" in="SourceGraphic" in2="BackgroundImageFix" result="shape"/>
<feColorMatrix in="SourceAlpha" type="matrix" values="0 0 0 0 0 0 0 0 0 0 0 0 0 0 0 0 0 0 127 0" result="hardAlpha"/>
<feOffset/>
<feGaussianBlur stdDeviation="1"/>
<feComposite in2="hardAlpha" operator="arithmetic" k2="-1" k3="1"/>
<feColorMatrix type="matrix" values="0 0 0 0 0.942 0 0 0 0 0.94 0 0 0 0 1 0 0 0 0.1 0"/>
<feBlend mode="hard-light" in2="shape" result="effect1_innerShadow_1134_3119"/>
</filter>
</defs>
</svg>
