<svg width="10" height="10" viewBox="0 0 10 10" fill="none" xmlns="http://www.w3.org/2000/svg">
<g filter="url(#filter0_i_1145_2819)">
<path d="M6.7998 3.2998C7.73869 3.2998 8.5 4.06112 8.5 5C8.5 5.93888 7.73869 6.7002 6.7998 6.7002H3.2002C2.26131 6.7002 1.5 5.93888 1.5 5C1.5 4.06112 2.26131 3.2998 3.2002 3.2998H6.7998ZM4.46973 4.40039C4.21608 4.40039 4.08902 4.39982 4.00488 4.47168C3.99298 4.48185 3.98186 4.49298 3.97168 4.50488C3.89983 4.58901 3.90039 4.71612 3.90039 4.96973V5.03027C3.90039 5.28387 3.89983 5.41099 3.97168 5.49512C3.98186 5.50702 3.99298 5.51815 4.00488 5.52832C4.08902 5.60018 4.21608 5.59961 4.46973 5.59961H6.7998C7.13117 5.59961 7.40039 5.33137 7.40039 5C7.40039 4.66863 7.13118 4.40039 6.7998 4.40039H4.46973Z" fill="white"/>
</g>
<defs>
<filter id="filter0_i_1145_2819" x="0" y="0" width="10" height="10" filterUnits="userSpaceOnUse" color-interpolation-filters="sRGB">
<feFlood flood-opacity="0" result="BackgroundImageFix"/>
<feBlend mode="normal" in="SourceGraphic" in2="BackgroundImageFix" result="shape"/>
<feColorMatrix in="SourceAlpha" type="matrix" values="0 0 0 0 0 0 0 0 0 0 0 0 0 0 0 0 0 0 127 0" result="hardAlpha"/>
<feOffset/>
<feGaussianBlur stdDeviation="1"/>
<feComposite in2="hardAlpha" operator="arithmetic" k2="-1" k3="1"/>
<feColorMatrix type="matrix" values="0 0 0 0 0.942 0 0 0 0 0.94 0 0 0 0 1 0 0 0 0.1 0"/>
<feBlend mode="hard-light" in2="shape" result="effect1_innerShadow_1145_2819"/>
</filter>
</defs>
</svg>
