<svg width="10" height="10" viewBox="0 0 10 10" fill="none" xmlns="http://www.w3.org/2000/svg">
<g filter="url(#filter0_i_1233_168)">
<path d="M3.60419 5.44351C4.03107 5.44131 4.24508 5.44116 4.38641 5.56168C4.40632 5.5787 4.42508 5.59742 4.44208 5.61734C4.56247 5.75863 4.56146 5.97205 4.55927 6.39859L4.55731 6.91617C4.55612 7.1477 4.55469 7.264 4.53583 7.33023C4.44682 7.64015 4.09248 7.78577 3.81122 7.62808C3.78498 7.61335 3.75398 7.58904 3.71454 7.55289C3.63609 7.48129 3.50939 7.48459 3.43427 7.55972L3.3493 7.64468C3.15077 7.84322 3.05032 7.94231 2.93134 7.96597C2.88018 7.97605 2.82721 7.97609 2.77606 7.96597C2.65728 7.94216 2.55733 7.84295 2.35907 7.64468C2.16064 7.44626 2.06153 7.34658 2.03778 7.22769C2.02754 7.1762 2.02755 7.12294 2.03778 7.07144C2.06149 6.95251 2.1606 6.85292 2.35907 6.65445L2.44403 6.56949C2.51922 6.4943 2.52271 6.3676 2.45087 6.28922C2.41447 6.24955 2.39051 6.21887 2.37567 6.19254C2.21763 5.91109 2.3632 5.55578 2.67352 5.46695C2.73978 5.44812 2.85621 5.44763 3.08759 5.44644L3.60419 5.44351ZM6.91864 5.44644C7.14875 5.44763 7.26448 5.44831 7.33075 5.46695C7.64109 5.55579 7.78863 5.91206 7.63055 6.19351C7.61579 6.21969 7.59062 6.24906 7.55438 6.28824C7.48221 6.36629 7.48612 6.49329 7.56122 6.56851L7.64618 6.65347C7.84438 6.85167 7.94353 6.95179 7.96747 7.07047C7.97768 7.12181 7.97761 7.17536 7.96747 7.22672C7.94381 7.34566 7.84459 7.4453 7.64618 7.64371C7.44762 7.84227 7.34814 7.94226 7.22919 7.96597C7.1777 7.97621 7.12443 7.97621 7.07294 7.96597C6.95397 7.94227 6.85451 7.84228 6.65594 7.64371L6.57098 7.55875C6.49576 7.48365 6.36871 7.48066 6.29071 7.55289C6.25127 7.5894 6.2213 7.61424 6.19501 7.62906C5.91366 7.78708 5.55744 7.64035 5.46844 7.33023C5.44964 7.26407 5.44913 7.14792 5.44794 6.91714L5.44501 6.39859C5.44281 5.97195 5.44271 5.75863 5.56317 5.61734C5.58022 5.59737 5.59886 5.57872 5.61884 5.56168C5.76013 5.44115 5.97336 5.44131 6.40009 5.44351L6.91864 5.44644ZM2.92743 2.03433C3.04634 2.05802 3.14604 2.15724 3.34442 2.35562L3.42938 2.44058C3.50461 2.51581 3.63126 2.51934 3.70966 2.44742C3.74934 2.41101 3.78 2.38707 3.80634 2.37222C4.08754 2.21429 4.44269 2.35933 4.53192 2.6691C4.55087 2.73527 4.55123 2.85232 4.55243 3.08414L4.55536 3.60172C4.55756 4.02844 4.55872 4.24265 4.43817 4.38394C4.42115 4.40385 4.40243 4.4226 4.38251 4.43961C4.24119 4.56006 4.027 4.55899 3.60028 4.55679L3.0827 4.55386C2.85103 4.55267 2.7348 4.55131 2.66864 4.53238C2.35872 4.44333 2.213 4.08904 2.37079 3.80777C2.3855 3.78157 2.4099 3.75145 2.44598 3.71207C2.51778 3.63373 2.51508 3.50608 2.44012 3.43082L2.35516 3.34586C2.15674 3.14743 2.05667 3.04774 2.0329 2.92886C2.02275 2.87754 2.02272 2.82393 2.0329 2.77261C2.05672 2.65386 2.156 2.55381 2.35419 2.35562C2.55243 2.15738 2.6524 2.05815 2.77118 2.03433C2.82258 2.02411 2.87602 2.02415 2.92743 2.03433ZM7.22821 2.03531C7.34708 2.05905 7.44683 2.15823 7.6452 2.3566C7.84368 2.55507 7.94282 2.65464 7.96649 2.77359C7.97671 2.82507 7.97673 2.87837 7.96649 2.92984C7.94267 3.04858 7.84336 3.1477 7.6452 3.34586L7.56024 3.43082C7.48512 3.50608 7.48248 3.63272 7.55438 3.71109C7.59077 3.75076 7.61473 3.78145 7.62958 3.80777C7.78763 4.08918 7.641 4.44445 7.33075 4.53336C7.26451 4.55213 7.14857 4.55365 6.91766 4.55484L6.40009 4.55679C5.97319 4.55899 5.75919 4.56013 5.61786 4.43961C5.59792 4.42256 5.57922 4.4039 5.56219 4.38394C5.4417 4.24266 5.44281 4.02928 5.44501 3.60269L5.44794 3.08414C5.44913 2.85336 5.44968 2.73728 5.46844 2.67105C5.55743 2.36098 5.9127 2.21431 6.19403 2.37222C6.22022 2.38695 6.25036 2.41135 6.28973 2.44742C6.36815 2.51928 6.49474 2.51571 6.57001 2.44058L6.65497 2.35562C6.85338 2.15721 6.95399 2.05897 7.07294 2.03531C7.1242 2.02518 7.17696 2.02516 7.22821 2.03531Z" fill="white"/>
</g>
<defs>
<filter id="filter0_i_1233_168" x="0" y="0" width="10" height="10" filterUnits="userSpaceOnUse" color-interpolation-filters="sRGB">
<feFlood flood-opacity="0" result="BackgroundImageFix"/>
<feBlend mode="normal" in="SourceGraphic" in2="BackgroundImageFix" result="shape"/>
<feColorMatrix in="SourceAlpha" type="matrix" values="0 0 0 0 0 0 0 0 0 0 0 0 0 0 0 0 0 0 127 0" result="hardAlpha"/>
<feOffset/>
<feGaussianBlur stdDeviation="1"/>
<feComposite in2="hardAlpha" operator="arithmetic" k2="-1" k3="1"/>
<feColorMatrix type="matrix" values="0 0 0 0 0.942 0 0 0 0 0.94 0 0 0 0 1 0 0 0 0.1 0"/>
<feBlend mode="hard-light" in2="shape" result="effect1_innerShadow_1233_168"/>
</filter>
</defs>
</svg>
