<svg width="10" height="10" viewBox="0 0 10 10" fill="none" xmlns="http://www.w3.org/2000/svg">
<g filter="url(#filter0_i_1093_26)">
<path d="M7.11353 3.74072C7.33971 3.5825 7.65147 3.63669 7.80981 3.86279C7.96791 4.08887 7.91259 4.40069 7.68677 4.55908C7.60719 4.61479 7.58096 4.71933 7.62451 4.80616L7.85767 5.271C7.95628 5.46851 7.8764 5.70931 7.67896 5.80811C7.48143 5.90687 7.24071 5.82586 7.14185 5.62842L7.00952 5.36331C6.94201 5.22806 6.90825 5.16044 6.85292 5.13037C6.8421 5.12449 6.83303 5.12053 6.82136 5.1166C6.76169 5.09647 6.69136 5.11705 6.5507 5.15822C6.35758 5.21474 6.26101 5.243 6.22078 5.29992C6.21299 5.31094 6.20752 5.32048 6.20195 5.33277C6.17316 5.39625 6.19371 5.47846 6.23482 5.64289L6.28735 5.85303C6.34081 6.06728 6.21059 6.28482 5.99634 6.33838C5.7823 6.39163 5.56471 6.26128 5.51099 6.04736L5.4102 5.64309C5.37663 5.50846 5.35985 5.44114 5.31376 5.40008C5.30694 5.39401 5.30033 5.38886 5.29277 5.38375C5.24164 5.34917 5.16953 5.34946 5.02531 5.35005C5.01698 5.35008 5.00863 5.3501 5.00024 5.3501C4.99122 5.3501 4.98223 5.35008 4.97327 5.35004C4.82904 5.34943 4.75693 5.34913 4.70579 5.38371C4.69822 5.38882 4.69161 5.39397 4.68479 5.40004C4.63869 5.4411 4.6219 5.50845 4.58833 5.64314L4.48755 6.04736C4.43377 6.26111 4.21708 6.39148 4.00317 6.33838C3.7889 6.28481 3.65867 6.0673 3.71216 5.85303L3.76439 5.64271C3.80525 5.47819 3.82569 5.39593 3.79674 5.33245C3.79121 5.32034 3.78581 5.31093 3.77813 5.30005C3.73788 5.24306 3.64129 5.21481 3.44811 5.1583C3.30717 5.11707 3.2367 5.09646 3.17695 5.11669C3.16542 5.12059 3.15647 5.1245 3.14577 5.1303C3.09032 5.16037 3.0565 5.22811 2.98887 5.36361L2.85669 5.62842C2.75786 5.8257 2.518 5.90661 2.32056 5.80811C2.12324 5.70928 2.0433 5.46845 2.14185 5.271L2.37415 4.80492C2.41709 4.71875 2.3916 4.61431 2.31274 4.55908C2.08691 4.40063 2.03243 4.08886 2.19067 3.86279C2.34913 3.63695 2.66089 3.58247 2.88696 3.74072C3.08805 3.88155 3.22277 4.00638 3.51294 4.12451C3.7984 4.24065 4.24933 4.3501 5.00024 4.3501C5.75101 4.35004 6.2012 4.24065 6.48657 4.12451C6.7771 4.00624 6.91205 3.88175 7.11353 3.74072Z" fill="white"/>
</g>
<defs>
<filter id="filter0_i_1093_26" x="0" y="0" width="10" height="10" filterUnits="userSpaceOnUse" color-interpolation-filters="sRGB">
<feFlood flood-opacity="0" result="BackgroundImageFix"/>
<feBlend mode="normal" in="SourceGraphic" in2="BackgroundImageFix" result="shape"/>
<feColorMatrix in="SourceAlpha" type="matrix" values="0 0 0 0 0 0 0 0 0 0 0 0 0 0 0 0 0 0 127 0" result="hardAlpha"/>
<feOffset/>
<feGaussianBlur stdDeviation="1"/>
<feComposite in2="hardAlpha" operator="arithmetic" k2="-1" k3="1"/>
<feColorMatrix type="matrix" values="0 0 0 0 0.942 0 0 0 0 0.94 0 0 0 0 1 0 0 0 0.1 0"/>
<feBlend mode="hard-light" in2="shape" result="effect1_innerShadow_1093_26"/>
</filter>
</defs>
</svg>
