<svg width="10" height="10" viewBox="0 0 10 10" fill="none" xmlns="http://www.w3.org/2000/svg">
<g filter="url(#filter0_i_1079_157)">
<path d="M3.77716 5.16632C4.24943 5.16389 4.48601 5.16285 4.6424 5.2962C4.66459 5.31514 4.68498 5.33651 4.70392 5.3587C4.83722 5.51512 4.83624 5.75159 4.8338 6.22394L4.83185 6.7962C4.83053 7.05236 4.82831 7.18093 4.80743 7.25421C4.70894 7.59722 4.31696 7.75883 4.00568 7.58429C3.97667 7.568 3.94282 7.54122 3.89923 7.50128C3.81244 7.42173 3.67193 7.42487 3.58868 7.50812L3.49493 7.60187C3.27539 7.82141 3.16451 7.93096 3.03302 7.95734C2.97619 7.96859 2.917 7.96861 2.86017 7.95734C2.72871 7.93098 2.61865 7.82129 2.39923 7.60187C2.17964 7.38227 2.06907 7.2725 2.04279 7.14093C2.03146 7.08397 2.03148 7.02504 2.04279 6.96808C2.06898 6.83637 2.17942 6.72598 2.39923 6.50616L2.49298 6.41241C2.57619 6.3292 2.58029 6.18862 2.50079 6.10187C2.46051 6.05797 2.43323 6.02457 2.41681 5.99542C2.2419 5.68394 2.40345 5.291 2.74689 5.19269C2.82021 5.17184 2.94879 5.17057 3.2049 5.16925L3.77716 5.16632ZM7.14044 2.0423C7.27195 2.06857 7.382 2.17742 7.60138 2.39679C7.82117 2.61658 7.93161 2.72702 7.95782 2.8587C7.96913 2.91567 7.96915 2.97459 7.95782 3.03156C7.93155 3.16308 7.8218 3.27305 7.60236 3.49249L7.50861 3.58624C7.42533 3.66952 7.42117 3.81 7.50079 3.89679C7.54109 3.94071 7.56835 3.97409 7.58478 4.00323C7.75972 4.31472 7.59718 4.70863 7.25372 4.80695C7.18041 4.82771 7.05218 4.82809 6.79669 4.82941L6.22345 4.83234C5.75108 4.83477 5.51461 4.83583 5.35822 4.70245C5.33616 4.68361 5.31552 4.66299 5.29669 4.64093C5.16329 4.48452 5.16437 4.24816 5.16681 3.7757L5.16974 3.20245C5.17106 2.94708 5.17143 2.81871 5.1922 2.74542C5.29057 2.40211 5.68449 2.23955 5.99591 2.41437C6.02493 2.43069 6.05871 2.45738 6.10236 2.49738C6.18911 2.57687 6.32861 2.57359 6.41193 2.49054L6.50665 2.39679C6.72602 2.17743 6.83613 2.06862 6.96759 2.0423C7.02457 2.03097 7.08346 2.03098 7.14044 2.0423Z" fill="white"/>
</g>
<defs>
<filter id="filter0_i_1079_157" x="0" y="0" width="10" height="10" filterUnits="userSpaceOnUse" color-interpolation-filters="sRGB">
<feFlood flood-opacity="0" result="BackgroundImageFix"/>
<feBlend mode="normal" in="SourceGraphic" in2="BackgroundImageFix" result="shape"/>
<feColorMatrix in="SourceAlpha" type="matrix" values="0 0 0 0 0 0 0 0 0 0 0 0 0 0 0 0 0 0 127 0" result="hardAlpha"/>
<feOffset/>
<feGaussianBlur stdDeviation="1"/>
<feComposite in2="hardAlpha" operator="arithmetic" k2="-1" k3="1"/>
<feColorMatrix type="matrix" values="0 0 0 0 0.942 0 0 0 0 0.94 0 0 0 0 1 0 0 0 0.1 0"/>
<feBlend mode="hard-light" in2="shape" result="effect1_innerShadow_1079_157"/>
</filter>
</defs>
</svg>
