<svg width="10" height="10" viewBox="0 0 10 10" fill="none" xmlns="http://www.w3.org/2000/svg">
<g filter="url(#filter0_i_1079_170)">
<path d="M3.33008 5.5C3.44178 5.5 3.57974 5.49929 3.69824 5.51367C3.83077 5.52977 4.01646 5.57224 4.18457 5.71582C4.22026 5.74633 4.25368 5.77973 4.28418 5.81543C4.42763 5.9835 4.47024 6.16929 4.48633 6.30176C4.50067 6.42017 4.5 6.55834 4.5 6.66992V7.3999C4.5 7.39999 4.5 7.40004 4.5 7.40008C4.49996 7.73139 4.23139 7.99996 3.90008 8C3.90004 8 3.89999 8 3.8999 8C3.89981 8 3.89977 8 3.89973 8C3.56842 7.99996 3.29985 7.73139 3.2998 7.40008C3.2998 7.40004 3.2998 7.39999 3.2998 7.3999V7.3501C3.2998 7.30376 3.2998 7.28059 3.29853 7.26103C3.27887 6.96052 3.03948 6.72113 2.73897 6.70148C2.71941 6.7002 2.69624 6.7002 2.6499 6.7002H2.6001C2.60001 6.7002 2.59996 6.7002 2.59992 6.7002C2.26861 6.70015 2.00004 6.43158 2 6.10027C2 6.10023 2 6.10019 2 6.1001C2 6.10001 2 6.09996 2 6.09992C2.00004 5.76861 2.26861 5.50004 2.59992 5.5C2.59996 5.5 2.60001 5.5 2.6001 5.5H3.33008ZM8 6.1001C8 6.10019 8 6.10023 8 6.10027C7.99996 6.43158 7.73139 6.70015 7.40008 6.7002C7.40004 6.7002 7.39999 6.7002 7.3999 6.7002H7.3501C7.30376 6.7002 7.28059 6.7002 7.26103 6.70148C6.96052 6.72113 6.72113 6.96052 6.70148 7.26103C6.7002 7.28059 6.7002 7.30376 6.7002 7.3501V7.3999C6.7002 7.39999 6.7002 7.40004 6.7002 7.40008C6.70015 7.73139 6.43158 7.99996 6.10027 8C6.10023 8 6.10019 8 6.1001 8C6.10001 8 6.09996 8 6.09992 8C5.76861 7.99996 5.50004 7.73139 5.5 7.40008C5.5 7.40004 5.5 7.39999 5.5 7.3999V6.66992C5.5 6.55834 5.49933 6.42017 5.51367 6.30176C5.52976 6.16929 5.57237 5.9835 5.71582 5.81543C5.74632 5.77973 5.77974 5.74633 5.81543 5.71582C5.98354 5.57224 6.16923 5.52977 6.30176 5.51367C6.42026 5.49929 6.55822 5.5 6.66992 5.5H7.3999C7.39999 5.5 7.40004 5.5 7.40008 5.5C7.73139 5.50004 7.99996 5.76861 8 6.09992C8 6.09996 8 6.10001 8 6.1001ZM4.5 3.33008C4.5 3.44171 4.5007 3.57988 4.48633 3.69824C4.47019 3.83075 4.42764 4.0166 4.28418 4.18457C4.25368 4.22025 4.22026 4.25369 4.18457 4.28418C4.01649 4.42765 3.83072 4.47024 3.69824 4.48633C3.57975 4.50071 3.44177 4.5 3.33008 4.5H2.6001C2.60001 4.5 2.59996 4.5 2.59992 4.5C2.26861 4.49996 2.00004 4.23139 2 3.90008C2 3.90004 2 3.89999 2 3.8999C2 3.89981 2 3.89977 2 3.89973C2.00004 3.56842 2.26861 3.29985 2.59992 3.2998C2.59996 3.2998 2.60001 3.2998 2.6001 3.2998H2.6499C2.69624 3.2998 2.71941 3.2998 2.73897 3.29853C3.03948 3.27887 3.27887 3.03948 3.29853 2.73897C3.2998 2.71941 3.2998 2.69624 3.2998 2.6499V2.6001C3.2998 2.60001 3.2998 2.59996 3.2998 2.59992C3.29985 2.26861 3.56842 2.00004 3.89973 2C3.89977 2 3.89981 2 3.8999 2C3.89999 2 3.90004 2 3.90008 2C4.23139 2.00004 4.49996 2.26861 4.5 2.59992C4.5 2.59996 4.5 2.60001 4.5 2.6001V3.33008ZM6.7002 2.6499C6.7002 2.69624 6.7002 2.71941 6.70148 2.73897C6.72113 3.03948 6.96052 3.27887 7.26103 3.29853C7.28059 3.2998 7.30376 3.2998 7.3501 3.2998H7.3999C7.39999 3.2998 7.40004 3.2998 7.40008 3.2998C7.73139 3.29985 7.99996 3.56842 8 3.89973C8 3.89977 8 3.89981 8 3.8999C8 3.89999 8 3.90004 8 3.90008C7.99996 4.23139 7.73139 4.49996 7.40008 4.5C7.40004 4.5 7.39999 4.5 7.3999 4.5H6.66992C6.55823 4.5 6.42025 4.50071 6.30176 4.48633C6.16928 4.47024 5.98351 4.42765 5.81543 4.28418C5.77974 4.25369 5.74632 4.22025 5.71582 4.18457C5.57236 4.0166 5.52981 3.83075 5.51367 3.69824C5.4993 3.57988 5.5 3.44171 5.5 3.33008V2.6001C5.5 2.60001 5.5 2.59996 5.5 2.59992C5.50004 2.26861 5.76861 2.00004 6.09992 2C6.09996 2 6.10001 2 6.1001 2C6.10019 2 6.10023 2 6.10027 2C6.43158 2.00004 6.70015 2.26861 6.7002 2.59992C6.7002 2.59996 6.7002 2.60001 6.7002 2.6001V2.6499Z" fill="white"/>
</g>
<defs>
<filter id="filter0_i_1079_170" x="0" y="0" width="10" height="10" filterUnits="userSpaceOnUse" color-interpolation-filters="sRGB">
<feFlood flood-opacity="0" result="BackgroundImageFix"/>
<feBlend mode="normal" in="SourceGraphic" in2="BackgroundImageFix" result="shape"/>
<feColorMatrix in="SourceAlpha" type="matrix" values="0 0 0 0 0 0 0 0 0 0 0 0 0 0 0 0 0 0 127 0" result="hardAlpha"/>
<feOffset/>
<feGaussianBlur stdDeviation="1"/>
<feComposite in2="hardAlpha" operator="arithmetic" k2="-1" k3="1"/>
<feColorMatrix type="matrix" values="0 0 0 0 0.942 0 0 0 0 0.94 0 0 0 0 1 0 0 0 0.1 0"/>
<feBlend mode="hard-light" in2="shape" result="effect1_innerShadow_1079_170"/>
</filter>
</defs>
</svg>
