<svg width="10" height="10" viewBox="0 0 10 10" fill="none" xmlns="http://www.w3.org/2000/svg">
<g filter="url(#filter0_i_1233_198)">
<path d="M3.62988 5.2002C3.74143 5.2002 3.87964 5.19857 3.99805 5.21289C4.13049 5.22898 4.31633 5.27263 4.48438 5.41602C4.52003 5.44648 4.5535 5.47998 4.58398 5.51562C4.72743 5.68358 4.77097 5.86945 4.78711 6.00195C4.80144 6.12028 4.79981 6.25856 4.7998 6.37012V7.3999C4.7998 7.39999 4.7998 7.40004 4.7998 7.40008C4.79976 7.73139 4.53119 7.99996 4.19988 8C4.19984 8 4.1998 8 4.19971 8C4.19962 8 4.19957 8 4.19953 8C3.86822 7.99996 3.59965 7.73139 3.59961 7.40008C3.59961 7.40004 3.59961 7.39999 3.59961 7.3999V7.2002C3.59961 7.01438 3.59961 6.92148 3.5792 6.84525C3.52375 6.63807 3.36193 6.47625 3.15475 6.4208C3.07852 6.40039 2.98562 6.40039 2.7998 6.40039H2.6001C2.60001 6.40039 2.59996 6.40039 2.59992 6.40039C2.26861 6.40035 2.00004 6.13178 2 5.80047C2 5.80043 2 5.80038 2 5.80029C2 5.8002 2 5.80016 2 5.80012C2.00004 5.46881 2.26861 5.20024 2.59992 5.2002C2.59996 5.2002 2.60001 5.2002 2.6001 5.2002H3.62988ZM5.80029 2C5.80038 2 5.80043 2 5.80047 2C6.13178 2.00004 6.40035 2.26861 6.40039 2.59992C6.40039 2.59996 6.40039 2.60001 6.40039 2.6001V2.7998C6.40039 2.98562 6.40039 3.07852 6.4208 3.15475C6.47625 3.36193 6.63807 3.52375 6.84525 3.5792C6.92148 3.59961 7.01438 3.59961 7.2002 3.59961H7.3999C7.39999 3.59961 7.40004 3.59961 7.40008 3.59961C7.73139 3.59965 7.99996 3.86822 8 4.19953C8 4.19957 8 4.19962 8 4.19971C8 4.1998 8 4.19984 8 4.19988C7.99996 4.53119 7.73139 4.79976 7.40008 4.7998C7.40004 4.7998 7.39999 4.7998 7.3999 4.7998H6.37012C6.25852 4.79981 6.12035 4.80145 6.00195 4.78711C5.86944 4.77099 5.68366 4.7275 5.51562 4.58398C5.47998 4.5535 5.44649 4.52004 5.41602 4.48438C5.27265 4.31633 5.22898 4.13049 5.21289 3.99805C5.1986 3.87968 5.2002 3.74137 5.2002 3.62988V2.6001C5.2002 2.60001 5.2002 2.59996 5.2002 2.59992C5.20024 2.26861 5.46881 2.00004 5.80012 2C5.80016 2 5.8002 2 5.80029 2Z" fill="white"/>
</g>
<defs>
<filter id="filter0_i_1233_198" x="0" y="0" width="10" height="10" filterUnits="userSpaceOnUse" color-interpolation-filters="sRGB">
<feFlood flood-opacity="0" result="BackgroundImageFix"/>
<feBlend mode="normal" in="SourceGraphic" in2="BackgroundImageFix" result="shape"/>
<feColorMatrix in="SourceAlpha" type="matrix" values="0 0 0 0 0 0 0 0 0 0 0 0 0 0 0 0 0 0 127 0" result="hardAlpha"/>
<feOffset/>
<feGaussianBlur stdDeviation="1"/>
<feComposite in2="hardAlpha" operator="arithmetic" k2="-1" k3="1"/>
<feColorMatrix type="matrix" values="0 0 0 0 0.942 0 0 0 0 0.94 0 0 0 0 1 0 0 0 0.1 0"/>
<feBlend mode="hard-light" in2="shape" result="effect1_innerShadow_1233_198"/>
</filter>
</defs>
</svg>
