<svg width="10" height="10" viewBox="0 0 10 10" fill="none" xmlns="http://www.w3.org/2000/svg">
<g filter="url(#filter0_i_1162_425)">
<path d="M4.70584 2.10941C4.47803 2.00424 4.18255 2.16413 3.59256 2.48441L2.95779 2.82913C2.34649 3.16099 2.04108 3.32721 2.00858 3.58109C2.00414 3.6159 2.00271 3.65158 2.00565 3.68655C2.02724 3.9416 2.32606 4.1206 2.92264 4.47855L3.5574 4.85941C4.15866 5.22016 4.45924 5.4002 4.6951 5.29788C4.7274 5.28386 4.75825 5.26661 4.7869 5.24612C4.88509 5.17591 4.93672 5.06146 4.96395 4.88722C5.00654 4.61457 5.02784 4.47824 5.09827 4.40875C5.10941 4.39776 5.11793 4.39046 5.13051 4.38115C5.21004 4.3223 5.32669 4.3223 5.55998 4.3223H5.59647C6.25904 4.3224 6.79653 4.85993 6.79666 5.52249C6.79666 6.18517 6.25912 6.72258 5.59647 6.72269H3.49588C3.16483 6.7229 2.89651 6.99126 2.89627 7.3223C2.89627 7.65354 3.16469 7.92267 3.49588 7.92288H5.59647C6.92186 7.92278 7.99588 6.84791 7.99588 5.52249C7.99575 4.19719 6.92178 3.12318 5.59647 3.12308H5.56291C5.32557 3.12308 5.20691 3.12308 5.12643 3.06188C5.11395 3.05239 5.10493 3.04444 5.09394 3.03325C5.02311 2.96111 5.00598 2.826 4.97172 2.55579C4.9473 2.36313 4.89728 2.23853 4.79471 2.16214C4.76707 2.14157 4.73711 2.12387 4.70584 2.10941Z" fill="white"/>
</g>
<defs>
<filter id="filter0_i_1162_425" x="0" y="0" width="10" height="10" filterUnits="userSpaceOnUse" color-interpolation-filters="sRGB">
<feFlood flood-opacity="0" result="BackgroundImageFix"/>
<feBlend mode="normal" in="SourceGraphic" in2="BackgroundImageFix" result="shape"/>
<feColorMatrix in="SourceAlpha" type="matrix" values="0 0 0 0 0 0 0 0 0 0 0 0 0 0 0 0 0 0 127 0" result="hardAlpha"/>
<feOffset/>
<feGaussianBlur stdDeviation="1"/>
<feComposite in2="hardAlpha" operator="arithmetic" k2="-1" k3="1"/>
<feColorMatrix type="matrix" values="0 0 0 0 0.942 0 0 0 0 0.94 0 0 0 0 1 0 0 0 0.1 0"/>
<feBlend mode="hard-light" in2="shape" result="effect1_innerShadow_1162_425"/>
</filter>
</defs>
</svg>
