<svg width="10" height="10" viewBox="0 0 10 10" fill="none" xmlns="http://www.w3.org/2000/svg">
<g filter="url(#filter0_i_1155_579)">
<path d="M5.29416 2.10938C5.52199 2.00407 5.81732 2.16403 6.40744 2.48438L7.04221 2.8291C7.65359 3.16099 7.95906 3.32708 7.99142 3.58105C7.99583 3.61571 7.99725 3.65073 7.99435 3.68555C7.97296 3.94075 7.67423 4.1204 7.07736 4.47852L6.4426 4.85938C5.84149 5.22004 5.54073 5.40004 5.3049 5.29785C5.27266 5.28385 5.2417 5.26652 5.2131 5.24609C5.11495 5.17591 5.06331 5.06141 5.03608 4.88718C4.99347 4.61452 4.97216 4.47819 4.90174 4.40871C4.8906 4.39772 4.88207 4.39042 4.8695 4.38112C4.78997 4.32227 4.67332 4.32227 4.44003 4.32227H4.40353C3.74095 4.32237 3.20344 4.85987 3.20334 5.52246C3.20351 6.18499 3.74099 6.72255 4.40353 6.72266H6.50412C6.83518 6.72287 7.10352 6.9912 7.10373 7.32227C7.10356 7.65336 6.83521 7.92264 6.50412 7.92285H4.40353C3.07825 7.92275 2.00429 6.84773 2.00412 5.52246C2.00423 4.19713 3.0782 3.12315 4.40353 3.12305H4.43709C4.67442 3.12305 4.79308 3.12305 4.87356 3.06185C4.88605 3.05236 4.89507 3.04441 4.90605 3.03322C4.97688 2.96108 4.99401 2.82597 5.02828 2.55575C5.0527 2.36309 5.10273 2.23854 5.20529 2.16211C5.23296 2.1415 5.26285 2.12386 5.29416 2.10938Z" fill="white"/>
</g>
<defs>
<filter id="filter0_i_1155_579" x="0" y="0" width="10" height="10" filterUnits="userSpaceOnUse" color-interpolation-filters="sRGB">
<feFlood flood-opacity="0" result="BackgroundImageFix"/>
<feBlend mode="normal" in="SourceGraphic" in2="BackgroundImageFix" result="shape"/>
<feColorMatrix in="SourceAlpha" type="matrix" values="0 0 0 0 0 0 0 0 0 0 0 0 0 0 0 0 0 0 127 0" result="hardAlpha"/>
<feOffset/>
<feGaussianBlur stdDeviation="1"/>
<feComposite in2="hardAlpha" operator="arithmetic" k2="-1" k3="1"/>
<feColorMatrix type="matrix" values="0 0 0 0 0.942 0 0 0 0 0.94 0 0 0 0 1 0 0 0 0.1 0"/>
<feBlend mode="hard-light" in2="shape" result="effect1_innerShadow_1155_579"/>
</filter>
</defs>
</svg>
