<svg width="10" height="10" viewBox="0 0 10 10" fill="none" xmlns="http://www.w3.org/2000/svg">
<g filter="url(#filter0_i_1079_89)">
<path d="M5.47461 2.34763C5.85809 2.34763 6.0502 2.34727 6.22363 2.41403C6.24904 2.42382 6.2743 2.43443 6.29883 2.44626C6.46613 2.52693 6.59714 2.66705 6.85938 2.94626L7.28516 3.39938C7.52568 3.65548 7.64584 3.78376 7.71484 3.9404C7.72497 3.9634 7.7348 3.98701 7.74316 4.01071C7.8001 4.17217 7.79978 4.34858 7.7998 4.70016V6.13181C7.79985 6.80929 7.80033 7.1485 7.6084 7.37302C7.58116 7.40487 7.55142 7.43468 7.51953 7.46188C7.29483 7.65355 6.95571 7.65306 6.27832 7.65231L3.71875 7.64938C3.04272 7.64864 2.7046 7.64765 2.48047 7.45602C2.44864 7.42881 2.41878 7.39902 2.3916 7.36716C2.20034 7.14281 2.2002 6.80477 2.2002 6.12888V3.86716C2.2002 3.19065 2.19998 2.85229 2.3916 2.6279C2.41882 2.59603 2.4486 2.56625 2.48047 2.53903C2.70486 2.34744 3.04323 2.34763 3.71973 2.34763H5.47461ZM5 5.15036C4.50302 5.15036 4.09974 5.55283 4.09961 6.04977C4.09961 6.54683 4.50294 6.95016 5 6.95016C5.49705 6.95016 5.90039 6.54683 5.90039 6.04977C5.90026 5.55283 5.49698 5.15036 5 5.15036ZM3.59961 3.04977C3.2132 3.04999 2.90041 3.36352 2.90039 3.74997C2.90039 4.13644 3.21319 4.44995 3.59961 4.45016H5.2002C5.58671 4.45006 5.90039 4.1365 5.90039 3.74997C5.90037 3.36345 5.58669 3.04988 5.2002 3.04977H3.59961Z" fill="white"/>
</g>
<defs>
<filter id="filter0_i_1079_89" x="0" y="0" width="10" height="10" filterUnits="userSpaceOnUse" color-interpolation-filters="sRGB">
<feFlood flood-opacity="0" result="BackgroundImageFix"/>
<feBlend mode="normal" in="SourceGraphic" in2="BackgroundImageFix" result="shape"/>
<feColorMatrix in="SourceAlpha" type="matrix" values="0 0 0 0 0 0 0 0 0 0 0 0 0 0 0 0 0 0 127 0" result="hardAlpha"/>
<feOffset/>
<feGaussianBlur stdDeviation="1"/>
<feComposite in2="hardAlpha" operator="arithmetic" k2="-1" k3="1"/>
<feColorMatrix type="matrix" values="0 0 0 0 0.942 0 0 0 0 0.94 0 0 0 0 1 0 0 0 0.1 0"/>
<feBlend mode="hard-light" in2="shape" result="effect1_innerShadow_1079_89"/>
</filter>
</defs>
</svg>
