<svg width="10" height="10" viewBox="0 0 10 10" fill="none" xmlns="http://www.w3.org/2000/svg">
<g filter="url(#filter0_i_1261_83)">
<path d="M5.98376 2.31069C6.33516 2.31365 6.65981 2.50091 6.83794 2.80386L7.33528 3.65143L7.82035 4.50658C7.99372 4.81245 7.99356 5.1873 7.82019 5.49317L7.33526 6.34873L6.83728 7.19562C6.65907 7.4987 6.33453 7.68626 5.98295 7.68905L4.99983 7.69655L4.01714 7.68963C3.66568 7.68683 3.34121 7.49936 3.16296 7.19646L2.66478 6.3484L2.17971 5.49325C2.00634 5.18738 2.00649 4.81253 2.17986 4.50666L2.66431 3.65195L3.16277 2.80421C3.34098 2.50113 3.66553 2.31357 4.01711 2.31078L5.00023 2.30329L5.98376 2.31069ZM5.6003 3.96118C5.02649 3.62989 4.29278 3.826 3.9613 4.39964C3.62992 4.97359 3.82665 5.70777 4.4006 6.03914C4.97449 6.37019 5.70795 6.17317 6.03925 5.59935C6.37022 5.02559 6.17382 4.29258 5.6003 3.96118Z" fill="white"/>
</g>
<defs>
<filter id="filter0_i_1261_83" x="0" y="0" width="10" height="10" filterUnits="userSpaceOnUse" color-interpolation-filters="sRGB">
<feFlood flood-opacity="0" result="BackgroundImageFix"/>
<feBlend mode="normal" in="SourceGraphic" in2="BackgroundImageFix" result="shape"/>
<feColorMatrix in="SourceAlpha" type="matrix" values="0 0 0 0 0 0 0 0 0 0 0 0 0 0 0 0 0 0 127 0" result="hardAlpha"/>
<feOffset/>
<feGaussianBlur stdDeviation="1"/>
<feComposite in2="hardAlpha" operator="arithmetic" k2="-1" k3="1"/>
<feColorMatrix type="matrix" values="0 0 0 0 0.942 0 0 0 0 0.94 0 0 0 0 1 0 0 0 0.1 0"/>
<feBlend mode="hard-light" in2="shape" result="effect1_innerShadow_1261_83"/>
</filter>
</defs>
</svg>
