<svg width="10" height="10" viewBox="0 0 10 10" fill="none" xmlns="http://www.w3.org/2000/svg">
<g filter="url(#filter0_i_1158_237)">
<path d="M4.0498 3C4.47278 3 4.68493 3.00032 4.8252 3.12012C4.84481 3.13691 4.86309 3.15519 4.87988 3.1748C4.96283 3.27192 4.98851 3.40343 4.99646 3.61553C5.00131 3.74509 5.00374 3.80987 5.03958 3.85014C5.04481 3.856 5.05007 3.86108 5.05613 3.86608C5.09771 3.90039 5.16009 3.90039 5.28487 3.90039H7.60059C8.20792 3.9006 8.7002 4.39262 8.7002 5C8.70019 5.60738 8.20792 6.0994 7.60059 6.09961H5.28487C5.16009 6.09961 5.09771 6.09961 5.05613 6.13392C5.05007 6.13892 5.04481 6.144 5.03958 6.14986C5.00374 6.19013 5.00131 6.25491 4.99646 6.38447C4.98851 6.59657 4.96283 6.72808 4.87988 6.8252C4.86309 6.84481 4.84481 6.8631 4.8252 6.87988C4.68493 6.99968 4.47278 7 4.0498 7C3.62699 7 3.41563 6.99966 3.27539 6.87988C3.25559 6.86296 3.23665 6.84499 3.21973 6.8252C3.13678 6.72808 3.1111 6.59657 3.10315 6.38447C3.0983 6.25491 3.09587 6.19013 3.06003 6.14986C3.0548 6.144 3.04954 6.13892 3.04348 6.13392C3.0019 6.09961 2.93952 6.09961 2.81474 6.09961H2.40039C1.79288 6.09961 1.29981 5.60751 1.2998 5C1.2998 4.39249 1.79288 3.90039 2.40039 3.90039H2.81474C2.93952 3.90039 3.0019 3.90039 3.04348 3.86608C3.04954 3.86108 3.0548 3.856 3.06003 3.85014C3.09587 3.80987 3.0983 3.74509 3.10315 3.61553C3.11109 3.40343 3.13678 3.27192 3.21973 3.1748C3.23665 3.15501 3.25559 3.13704 3.27539 3.12012C3.41563 3.00034 3.62699 3 4.0498 3ZM5.2002 4.59961C5.08998 4.59982 5.00108 4.68957 5.00098 4.7998V5.2002C5.00108 5.31043 5.08998 5.40018 5.2002 5.40039H7.60059C7.8215 5.40039 8.00098 5.22091 8.00098 5C8.00098 4.77909 7.8215 4.59961 7.60059 4.59961H5.2002Z" fill="white"/>
</g>
<defs>
<filter id="filter0_i_1158_237" x="0" y="0" width="10" height="10" filterUnits="userSpaceOnUse" color-interpolation-filters="sRGB">
<feFlood flood-opacity="0" result="BackgroundImageFix"/>
<feBlend mode="normal" in="SourceGraphic" in2="BackgroundImageFix" result="shape"/>
<feColorMatrix in="SourceAlpha" type="matrix" values="0 0 0 0 0 0 0 0 0 0 0 0 0 0 0 0 0 0 127 0" result="hardAlpha"/>
<feOffset/>
<feGaussianBlur stdDeviation="1"/>
<feComposite in2="hardAlpha" operator="arithmetic" k2="-1" k3="1"/>
<feColorMatrix type="matrix" values="0 0 0 0 0.942 0 0 0 0 0.94 0 0 0 0 1 0 0 0 0.1 0"/>
<feBlend mode="hard-light" in2="shape" result="effect1_innerShadow_1158_237"/>
</filter>
</defs>
</svg>
