<svg width="10" height="10" viewBox="0 0 10 10" fill="none" xmlns="http://www.w3.org/2000/svg">
<g filter="url(#filter0_i_1158_198)">
<path d="M6.00146 5.50049C6.77448 5.50067 7.40083 6.12686 7.40088 6.8999C7.40088 7.67299 6.77451 8.30011 6.00146 8.30029H4.00146C3.22827 8.30029 2.60107 7.6731 2.60107 6.8999C2.60113 6.12675 3.2283 5.50049 4.00146 5.50049H6.00146ZM4.00049 6.00049C3.50358 6.00062 3.10113 6.40297 3.10107 6.8999C3.10107 7.39688 3.50354 7.80016 4.00049 7.80029C4.49754 7.80029 4.90088 7.39696 4.90088 6.8999C4.90083 6.40289 4.49751 6.00049 4.00049 6.00049ZM5.99854 1.69971C6.77173 1.69971 7.39893 2.3269 7.39893 3.1001C7.39887 3.87325 6.7717 4.50049 5.99854 4.50049H3.99854C3.22556 4.50027 2.59917 3.87312 2.59912 3.1001C2.59912 2.32704 3.22552 1.69993 3.99854 1.69971H5.99854ZM5.99854 2.19971C5.5017 2.19997 5.09912 2.6032 5.09912 3.1001C5.09917 3.59695 5.50173 4.00022 5.99854 4.00049C6.49556 4.00049 6.89888 3.59711 6.89893 3.1001C6.89893 2.60304 6.49559 2.19971 5.99854 2.19971Z" fill="white"/>
</g>
<defs>
<filter id="filter0_i_1158_198" x="0" y="0" width="10" height="10" filterUnits="userSpaceOnUse" color-interpolation-filters="sRGB">
<feFlood flood-opacity="0" result="BackgroundImageFix"/>
<feBlend mode="normal" in="SourceGraphic" in2="BackgroundImageFix" result="shape"/>
<feColorMatrix in="SourceAlpha" type="matrix" values="0 0 0 0 0 0 0 0 0 0 0 0 0 0 0 0 0 0 127 0" result="hardAlpha"/>
<feOffset/>
<feGaussianBlur stdDeviation="1"/>
<feComposite in2="hardAlpha" operator="arithmetic" k2="-1" k3="1"/>
<feColorMatrix type="matrix" values="0 0 0 0 0.942 0 0 0 0 0.94 0 0 0 0 1 0 0 0 0.1 0"/>
<feBlend mode="hard-light" in2="shape" result="effect1_innerShadow_1158_198"/>
</filter>
</defs>
</svg>
