<svg width="10" height="10" viewBox="0 0 10 10" fill="none" xmlns="http://www.w3.org/2000/svg">
<g filter="url(#filter0_i_1079_298)">
<path d="M5.00049 1.6748C6.02188 1.67511 6.84998 2.50396 6.8501 3.52539C6.84989 3.77368 6.64822 3.97451 6.3999 3.97461C6.15159 3.9745 5.94992 3.77367 5.94971 3.52539C5.94959 3.00102 5.52482 2.57551 5.00049 2.5752C4.47589 2.5752 4.05042 3.00082 4.05029 3.52539V4.25059C4.05029 4.46207 4.05029 4.56782 4.11019 4.63795C4.1187 4.64791 4.12797 4.65718 4.13793 4.66569C4.20806 4.72559 4.31381 4.72559 4.52529 4.72559H6.08057C6.75701 4.72559 7.09545 4.72536 7.31982 4.91699C7.35167 4.9442 7.38149 4.97401 7.40869 5.00586C7.60022 5.23025 7.6001 5.56869 7.6001 6.24512V6.80566C7.6001 7.48209 7.60021 7.82053 7.40869 8.04492C7.38149 8.07677 7.35167 8.10659 7.31982 8.13379C7.09545 8.32542 6.75701 8.3252 6.08057 8.3252H3.92041C3.24365 8.3252 2.9046 8.32546 2.68018 8.13379C2.64838 8.10661 2.61847 8.07673 2.59131 8.04492C2.39987 7.82053 2.3999 7.48199 2.3999 6.80566V6.24512C2.3999 5.56879 2.39986 5.23025 2.59131 5.00586C2.61848 4.97405 2.64837 4.94417 2.68018 4.91699C2.70119 4.89904 2.72322 4.88277 2.74644 4.86803C2.97046 4.72578 3.08247 4.65466 3.11267 4.60571C3.11906 4.59535 3.11945 4.59464 3.12477 4.5837C3.1499 4.53196 3.1499 4.46203 3.1499 4.32218V3.52539C3.15002 2.50377 3.97884 1.6748 5.00049 1.6748ZM4.80029 6.0498C4.46892 6.0498 4.19971 6.31902 4.19971 6.65039C4.19987 6.98163 4.46902 7.25 4.80029 7.25H5.19971C5.53098 7.25 5.80013 6.98163 5.80029 6.65039C5.80029 6.31902 5.53108 6.0498 5.19971 6.0498H4.80029Z" fill="white"/>
</g>
<defs>
<filter id="filter0_i_1079_298" x="0" y="0" width="10" height="10" filterUnits="userSpaceOnUse" color-interpolation-filters="sRGB">
<feFlood flood-opacity="0" result="BackgroundImageFix"/>
<feBlend mode="normal" in="SourceGraphic" in2="BackgroundImageFix" result="shape"/>
<feColorMatrix in="SourceAlpha" type="matrix" values="0 0 0 0 0 0 0 0 0 0 0 0 0 0 0 0 0 0 127 0" result="hardAlpha"/>
<feOffset/>
<feGaussianBlur stdDeviation="1"/>
<feComposite in2="hardAlpha" operator="arithmetic" k2="-1" k3="1"/>
<feColorMatrix type="matrix" values="0 0 0 0 0.942 0 0 0 0 0.94 0 0 0 0 1 0 0 0 0.1 0"/>
<feBlend mode="hard-light" in2="shape" result="effect1_innerShadow_1079_298"/>
</filter>
</defs>
</svg>
