<svg width="10" height="10" viewBox="0 0 10 10" fill="none" xmlns="http://www.w3.org/2000/svg">
<g filter="url(#filter0_i_1660_162)">
<path d="M5 1.7002C6.82253 1.70021 8.2998 3.17747 8.2998 5C8.29979 6.82252 6.82252 8.29979 5 8.2998C3.17747 8.2998 1.70021 6.82253 1.7002 5C1.7002 3.17746 3.17746 1.7002 5 1.7002ZM4.31738 5.18066C4.05733 5.06746 3.90421 5.00409 3.67188 5.19043C3.16181 5.59955 3.12989 6.08775 3.12988 6.29395C3.13004 6.50029 3.4801 7.14061 5.00195 7.14062C6.62357 7.14056 6.87391 6.50029 6.87402 6.29395C6.87402 6.08775 6.84141 5.5995 6.33105 5.19043C6.10249 5.00733 5.94747 5.06702 5.68652 5.18066C5.47686 5.27197 5.24537 5.32223 5.00195 5.32227C4.75853 5.32226 4.52713 5.2719 4.31738 5.18066ZM5.00195 2.5498C4.4231 2.5498 3.95332 3.01814 3.95312 3.5957C3.95312 4.17343 4.42298 4.64258 5.00195 4.64258C5.58081 4.64245 6.0498 4.17335 6.0498 3.5957C6.04961 3.01822 5.5807 2.54993 5.00195 2.5498Z" fill="white"/>
</g>
<defs>
<filter id="filter0_i_1660_162" x="0" y="0" width="10" height="10" filterUnits="userSpaceOnUse" color-interpolation-filters="sRGB">
<feFlood flood-opacity="0" result="BackgroundImageFix"/>
<feBlend mode="normal" in="SourceGraphic" in2="BackgroundImageFix" result="shape"/>
<feColorMatrix in="SourceAlpha" type="matrix" values="0 0 0 0 0 0 0 0 0 0 0 0 0 0 0 0 0 0 127 0" result="hardAlpha"/>
<feOffset/>
<feGaussianBlur stdDeviation="1"/>
<feComposite in2="hardAlpha" operator="arithmetic" k2="-1" k3="1"/>
<feColorMatrix type="matrix" values="0 0 0 0 0.942 0 0 0 0 0.94 0 0 0 0 1 0 0 0 0.1 0"/>
<feBlend mode="hard-light" in2="shape" result="effect1_innerShadow_1660_162"/>
</filter>
</defs>
</svg>
