<svg width="10" height="10" viewBox="0 0 10 10" fill="none" xmlns="http://www.w3.org/2000/svg">
<g filter="url(#filter0_i_1660_177)">
<path d="M5.73006 1.7998C6.82975 1.7998 7.38002 1.79986 7.74471 2.11133C7.79641 2.1555 7.84409 2.20415 7.88826 2.25586C8.19969 2.6205 8.19978 3.17011 8.19978 4.26953V5.73047C8.19978 6.82988 8.19969 7.37951 7.88826 7.74414C7.84409 7.79585 7.79641 7.8445 7.74471 7.88867C7.38002 8.20014 6.82975 8.2002 5.73006 8.2002H4.2701C3.17036 8.2002 2.62013 8.20014 2.25545 7.88867C2.20374 7.8445 2.15607 7.79585 2.11189 7.74414C1.80047 7.37951 1.80037 6.82988 1.80037 5.73047V4.26953C1.80037 3.17011 1.80046 2.6205 2.11189 2.25586C2.15607 2.20415 2.20374 2.1555 2.25545 2.11133C2.62013 1.79986 3.17037 1.7998 4.2701 1.7998H5.73006ZM4.31697 5.28027C4.05697 5.16709 3.90473 5.10473 3.67244 5.29102C3.16258 5.69997 3.13048 6.18721 3.13045 6.39355C3.13044 6.59973 3.47971 7.24108 5.00154 7.24121C6.62352 7.24115 6.87361 6.59975 6.87361 6.39355C6.87359 6.18721 6.84177 5.69894 6.33162 5.29004C6.10297 5.10679 5.94713 5.1666 5.68611 5.28027C5.4765 5.37153 5.24488 5.42281 5.00154 5.42285C4.7581 5.42278 4.52672 5.37158 4.31697 5.28027ZM5.00154 2.65039C4.42266 2.65049 3.95369 3.11863 3.95369 3.69629C3.95382 4.27384 4.42274 4.74209 5.00154 4.74219C5.58043 4.74219 6.05024 4.2739 6.05037 3.69629C6.05037 3.11856 5.58051 2.65039 5.00154 2.65039Z" fill="white"/>
</g>
<defs>
<filter id="filter0_i_1660_177" x="0" y="0" width="10" height="10" filterUnits="userSpaceOnUse" color-interpolation-filters="sRGB">
<feFlood flood-opacity="0" result="BackgroundImageFix"/>
<feBlend mode="normal" in="SourceGraphic" in2="BackgroundImageFix" result="shape"/>
<feColorMatrix in="SourceAlpha" type="matrix" values="0 0 0 0 0 0 0 0 0 0 0 0 0 0 0 0 0 0 127 0" result="hardAlpha"/>
<feOffset/>
<feGaussianBlur stdDeviation="1"/>
<feComposite in2="hardAlpha" operator="arithmetic" k2="-1" k3="1"/>
<feColorMatrix type="matrix" values="0 0 0 0 0.942 0 0 0 0 0.94 0 0 0 0 1 0 0 0 0.1 0"/>
<feBlend mode="hard-light" in2="shape" result="effect1_innerShadow_1660_177"/>
</filter>
</defs>
</svg>
