<svg width="10" height="10" viewBox="0 0 10 10" fill="none" xmlns="http://www.w3.org/2000/svg">
<g filter="url(#filter0_i_1658_136)">
<path d="M5.17365 5.30566C5.27555 5.32502 5.33431 5.37209 5.45099 5.46582C6.08041 5.9717 6.11989 6.70982 6.11993 6.83008C6.11986 7.01516 5.93475 7.75382 3.81036 7.75391C1.68561 7.75391 1.50087 7.01476 1.50079 6.83008C1.50084 6.70997 1.53963 5.97177 2.16876 5.46582C2.28543 5.37203 2.34414 5.32504 2.44611 5.30566C2.46053 5.30293 2.47639 5.30096 2.49103 5.2998C2.59459 5.29167 2.71794 5.34549 2.96466 5.45312C3.22365 5.56612 3.50975 5.62891 3.81036 5.62891C4.11071 5.62885 4.39638 5.56604 4.65509 5.45312C4.90177 5.34546 5.02517 5.29169 5.12872 5.2998C5.14334 5.30096 5.15925 5.30294 5.17365 5.30566ZM7.7713 3.15723C7.95674 2.97179 8.25669 2.97191 8.4422 3.15723C8.6277 3.34273 8.6277 3.64263 8.4422 3.82812C8.29295 3.97777 8.21832 4.05259 8.20073 4.14201C8.19319 4.18038 8.19321 4.21985 8.20081 4.25821C8.21852 4.34761 8.29308 4.42217 8.4422 4.57129C8.6277 4.75679 8.6277 5.05669 8.4422 5.24219C8.2567 5.42762 7.95678 5.42766 7.7713 5.24219C7.62218 5.09307 7.54762 5.0185 7.45822 5.0008C7.41986 4.9932 7.38039 4.99317 7.34203 5.00072C7.2526 5.01831 7.17778 5.09294 7.02814 5.24219C6.84264 5.42769 6.54274 5.42769 6.35724 5.24219C6.17193 5.05667 6.1718 4.75673 6.35724 4.57129C6.50636 4.42217 6.58092 4.34761 6.59863 4.25821C6.60623 4.21985 6.60625 4.18038 6.59871 4.14201C6.58112 4.05259 6.50649 3.97777 6.35724 3.82812C6.17187 3.64264 6.17184 3.34269 6.35724 3.15723C6.5427 2.97176 6.84263 2.97184 7.02814 3.15723C7.17778 3.30648 7.2526 3.3811 7.34203 3.39869C7.38039 3.40624 7.41986 3.40621 7.45822 3.39862C7.54762 3.38091 7.62218 3.30635 7.7713 3.15723ZM3.81036 2.2002C4.52461 2.20042 5.10333 2.77981 5.10333 3.49414C5.10308 4.20826 4.52445 4.78689 3.81036 4.78711C3.09608 4.78711 2.51667 4.20839 2.51642 3.49414C2.51642 2.77967 3.09593 2.2002 3.81036 2.2002Z" fill="white"/>
</g>
<defs>
<filter id="filter0_i_1658_136" x="0" y="0" width="10" height="10" filterUnits="userSpaceOnUse" color-interpolation-filters="sRGB">
<feFlood flood-opacity="0" result="BackgroundImageFix"/>
<feBlend mode="normal" in="SourceGraphic" in2="BackgroundImageFix" result="shape"/>
<feColorMatrix in="SourceAlpha" type="matrix" values="0 0 0 0 0 0 0 0 0 0 0 0 0 0 0 0 0 0 127 0" result="hardAlpha"/>
<feOffset/>
<feGaussianBlur stdDeviation="1"/>
<feComposite in2="hardAlpha" operator="arithmetic" k2="-1" k3="1"/>
<feColorMatrix type="matrix" values="0 0 0 0 0.942 0 0 0 0 0.94 0 0 0 0 1 0 0 0 0.1 0"/>
<feBlend mode="hard-light" in2="shape" result="effect1_innerShadow_1658_136"/>
</filter>
</defs>
</svg>
