<svg width="10" height="10" viewBox="0 0 10 10" fill="none" xmlns="http://www.w3.org/2000/svg">
<g filter="url(#filter0_i_1653_94)">
<path d="M5.17383 5.30566C5.27558 5.32503 5.33366 5.37221 5.4502 5.46582C6.07996 5.97171 6.12007 6.7098 6.12012 6.83008C6.12005 7.01516 5.93475 7.75377 3.81055 7.75391C1.68579 7.75391 1.50008 7.01476 1.5 6.83008C1.50004 6.70996 1.5397 5.97177 2.16895 5.46582C2.28569 5.37198 2.3442 5.32501 2.44629 5.30566C2.46075 5.30292 2.47654 5.30096 2.49121 5.2998C2.59478 5.2917 2.71808 5.34546 2.96484 5.45312C3.22383 5.56612 3.50993 5.62891 3.81055 5.62891C4.11065 5.62882 4.39577 5.56589 4.6543 5.45312C4.9011 5.34541 5.02533 5.29169 5.12891 5.2998C5.14347 5.30096 5.15949 5.30295 5.17383 5.30566ZM8 3.90039C8.27596 3.90061 8.5 4.12438 8.5 4.40039C8.49977 4.6762 8.27582 4.90018 8 4.90039H6.40039C6.12439 4.90039 5.90062 4.67633 5.90039 4.40039C5.90039 4.12425 6.12425 3.90039 6.40039 3.90039H8ZM3.80957 2.2002C4.52401 2.2002 5.10352 2.77967 5.10352 3.49414C5.10326 4.20839 4.52385 4.78711 3.80957 4.78711C3.09546 4.78691 2.51686 4.20827 2.5166 3.49414C2.5166 2.77979 3.0953 2.20039 3.80957 2.2002Z" fill="white"/>
</g>
<defs>
<filter id="filter0_i_1653_94" x="0" y="0" width="10" height="10" filterUnits="userSpaceOnUse" color-interpolation-filters="sRGB">
<feFlood flood-opacity="0" result="BackgroundImageFix"/>
<feBlend mode="normal" in="SourceGraphic" in2="BackgroundImageFix" result="shape"/>
<feColorMatrix in="SourceAlpha" type="matrix" values="0 0 0 0 0 0 0 0 0 0 0 0 0 0 0 0 0 0 127 0" result="hardAlpha"/>
<feOffset/>
<feGaussianBlur stdDeviation="1"/>
<feComposite in2="hardAlpha" operator="arithmetic" k2="-1" k3="1"/>
<feColorMatrix type="matrix" values="0 0 0 0 0.942 0 0 0 0 0.94 0 0 0 0 1 0 0 0 0.1 0"/>
<feBlend mode="hard-light" in2="shape" result="effect1_innerShadow_1653_94"/>
</filter>
</defs>
</svg>
