<svg width="10" height="10" viewBox="0 0 10 10" fill="none" xmlns="http://www.w3.org/2000/svg">
<g filter="url(#filter0_i_1658_141)">
<path d="M5.17365 5.30548C5.27556 5.32483 5.3343 5.3719 5.45099 5.46564C6.08037 5.97143 6.11987 6.70942 6.11993 6.8299C6.11994 7.01479 5.93518 7.75363 3.81036 7.75372C1.68517 7.75372 1.49982 7.01439 1.49982 6.8299C1.49987 6.70957 1.53966 5.97149 2.16876 5.46564C2.28545 5.37184 2.34411 5.32485 2.44611 5.30548C2.46054 5.30275 2.47638 5.30078 2.49103 5.29962C2.59458 5.29148 2.71798 5.34532 2.96466 5.45294C3.22365 5.56593 3.50975 5.62872 3.81036 5.62872C4.11071 5.62866 4.39639 5.56585 4.65509 5.45294C4.90171 5.3453 5.02518 5.29151 5.12872 5.29962C5.14334 5.30077 5.15925 5.30276 5.17365 5.30548ZM7.59747 3.41681C7.78286 3.23142 8.08382 3.23165 8.26935 3.41681C8.45457 3.60233 8.45475 3.90328 8.26935 4.08868L7.40704 4.95099C7.35582 5.00222 7.2874 5.0714 7.22052 5.12384C7.14467 5.18326 7.02282 5.26004 6.85529 5.27325C6.82024 5.276 6.78487 5.27697 6.74982 5.27423C6.58224 5.26103 6.46044 5.18327 6.38458 5.12384C6.31758 5.07131 6.24835 5.00226 6.19708 4.95099L5.8299 4.5838C5.64446 4.39836 5.64555 4.09744 5.83087 3.91193C6.01639 3.7267 6.31636 3.72652 6.50177 3.91193C6.5843 3.99419 6.62557 4.03532 6.67013 4.05717C6.7536 4.0981 6.85132 4.09802 6.93472 4.05696C6.97925 4.03504 7.02045 3.99384 7.10284 3.91144L7.59747 3.41681ZM3.81036 2.20001C4.5246 2.20024 5.10333 2.77963 5.10333 3.49396C5.10318 4.20815 4.52451 4.7867 3.81036 4.78693C3.09602 4.78693 2.51657 4.20829 2.51642 3.49396C2.51642 2.77949 3.09593 2.20001 3.81036 2.20001Z" fill="white"/>
</g>
<defs>
<filter id="filter0_i_1658_141" x="0" y="0" width="10" height="10" filterUnits="userSpaceOnUse" color-interpolation-filters="sRGB">
<feFlood flood-opacity="0" result="BackgroundImageFix"/>
<feBlend mode="normal" in="SourceGraphic" in2="BackgroundImageFix" result="shape"/>
<feColorMatrix in="SourceAlpha" type="matrix" values="0 0 0 0 0 0 0 0 0 0 0 0 0 0 0 0 0 0 127 0" result="hardAlpha"/>
<feOffset/>
<feGaussianBlur stdDeviation="1"/>
<feComposite in2="hardAlpha" operator="arithmetic" k2="-1" k3="1"/>
<feColorMatrix type="matrix" values="0 0 0 0 0.942 0 0 0 0 0.94 0 0 0 0 1 0 0 0 0.1 0"/>
<feBlend mode="hard-light" in2="shape" result="effect1_innerShadow_1658_141"/>
</filter>
</defs>
</svg>
