<svg width="10" height="10" viewBox="0 0 10 10" fill="none" xmlns="http://www.w3.org/2000/svg">
<g filter="url(#filter0_i_1658_146)">
<path d="M5.47385 5.30582C5.5756 5.32519 5.63364 5.37233 5.75021 5.46597C6.37998 5.97186 6.42009 6.70995 6.42014 6.83023C6.41997 7.01554 6.23423 7.75392 4.11057 7.75406C1.98635 7.75406 1.80019 7.01515 1.80002 6.83023C1.80006 6.71012 1.83979 5.97192 2.46896 5.46597C2.58569 5.37214 2.64424 5.32517 2.74631 5.30582C2.76077 5.30308 2.77655 5.30111 2.79123 5.29996C2.89481 5.29184 3.01805 5.3456 3.26486 5.45328C3.52385 5.56627 3.80995 5.62906 4.11057 5.62906C4.41064 5.62897 4.6958 5.56602 4.95432 5.45328C5.20112 5.34556 5.32535 5.29184 5.42892 5.29996C5.44348 5.30111 5.45951 5.3031 5.47385 5.30582ZM4.10959 2.20035C4.8239 2.20035 5.40334 2.77902 5.40353 3.49332C5.40353 4.20778 4.82402 4.78726 4.10959 4.78726C3.39532 4.78706 2.81662 4.20766 2.81662 3.49332C2.81682 2.77914 3.39544 2.20055 4.10959 2.20035Z" fill="white"/>
<circle cx="7.60001" cy="5.50006" r="0.5" fill="white"/>
<path d="M7.00018 2.7154C7.00018 2.51148 7.17927 2.20001 7.60018 2.20001C8.0211 2.20001 8.20018 2.51148 8.20018 2.7154C8.20018 2.91932 8.10018 3.76532 8.05018 3.96924C8.00018 4.17316 7.9211 4.43847 7.60018 4.43847C7.27927 4.43847 7.20018 4.17316 7.15018 3.96924C7.10018 3.76532 7.00018 2.91932 7.00018 2.7154Z" fill="white"/>
</g>
<defs>
<filter id="filter0_i_1658_146" x="0" y="0" width="10" height="10" filterUnits="userSpaceOnUse" color-interpolation-filters="sRGB">
<feFlood flood-opacity="0" result="BackgroundImageFix"/>
<feBlend mode="normal" in="SourceGraphic" in2="BackgroundImageFix" result="shape"/>
<feColorMatrix in="SourceAlpha" type="matrix" values="0 0 0 0 0 0 0 0 0 0 0 0 0 0 0 0 0 0 127 0" result="hardAlpha"/>
<feOffset/>
<feGaussianBlur stdDeviation="1"/>
<feComposite in2="hardAlpha" operator="arithmetic" k2="-1" k3="1"/>
<feColorMatrix type="matrix" values="0 0 0 0 0.942 0 0 0 0 0.94 0 0 0 0 1 0 0 0 0.1 0"/>
<feBlend mode="hard-light" in2="shape" result="effect1_innerShadow_1658_146"/>
</filter>
</defs>
</svg>
