<svg width="10" height="10" viewBox="0 0 10 10" fill="none" xmlns="http://www.w3.org/2000/svg">
<g filter="url(#filter0_i_1658_127)">
<path d="M4.97363 5.30566C5.07554 5.32502 5.1343 5.37209 5.25098 5.46582C5.88039 5.9717 5.91987 6.70982 5.91992 6.83008C5.91985 7.01516 5.73474 7.75382 3.61035 7.75391C1.4856 7.75391 1.30086 7.01476 1.30078 6.83008C1.30082 6.70997 1.33962 5.97177 1.96875 5.46582C2.08542 5.37203 2.14412 5.32504 2.24609 5.30566C2.26052 5.30293 2.27637 5.30096 2.29102 5.2998C2.39458 5.29167 2.51793 5.34549 2.76465 5.45312C3.02364 5.56612 3.30974 5.62891 3.61035 5.62891C3.9107 5.62885 4.19637 5.56604 4.45508 5.45312C4.70175 5.34546 4.82516 5.29169 4.92871 5.2998C4.94333 5.30096 4.95923 5.30294 4.97363 5.30566ZM8.2998 5.64941C8.54808 5.64953 8.74975 5.85136 8.75 6.09961C8.75 6.34807 8.54823 6.54969 8.2998 6.5498H7.2002C6.95167 6.5498 6.75 6.34814 6.75 6.09961C6.75025 5.85129 6.95182 5.64941 7.2002 5.64941H8.2998ZM8.2998 3.9502C8.54824 3.9503 8.75 4.15193 8.75 4.40039C8.74977 4.64866 8.5481 4.85048 8.2998 4.85059H6.59961C6.35139 4.85038 6.14964 4.6486 6.14941 4.40039C6.14941 4.15199 6.35125 3.9504 6.59961 3.9502H8.2998ZM3.61035 2.2002C4.3246 2.20042 4.90332 2.77981 4.90332 3.49414C4.90307 4.20826 4.32444 4.78689 3.61035 4.78711C2.89607 4.78711 2.31666 4.20839 2.31641 3.49414C2.31641 2.77967 2.89592 2.2002 3.61035 2.2002ZM8.2998 2.25C8.54833 2.25 8.75 2.45167 8.75 2.7002C8.74982 2.94857 8.54822 3.15039 8.2998 3.15039H6C5.75159 3.15038 5.54999 2.94857 5.5498 2.7002C5.5498 2.45167 5.75148 2.25001 6 2.25H8.2998Z" fill="white"/>
</g>
<defs>
<filter id="filter0_i_1658_127" x="0" y="0" width="10" height="10" filterUnits="userSpaceOnUse" color-interpolation-filters="sRGB">
<feFlood flood-opacity="0" result="BackgroundImageFix"/>
<feBlend mode="normal" in="SourceGraphic" in2="BackgroundImageFix" result="shape"/>
<feColorMatrix in="SourceAlpha" type="matrix" values="0 0 0 0 0 0 0 0 0 0 0 0 0 0 0 0 0 0 127 0" result="hardAlpha"/>
<feOffset/>
<feGaussianBlur stdDeviation="1"/>
<feComposite in2="hardAlpha" operator="arithmetic" k2="-1" k3="1"/>
<feColorMatrix type="matrix" values="0 0 0 0 0.942 0 0 0 0 0.94 0 0 0 0 1 0 0 0 0.1 0"/>
<feBlend mode="hard-light" in2="shape" result="effect1_innerShadow_1658_127"/>
</filter>
</defs>
</svg>
