<svg width="10" height="10" viewBox="0 0 10 10" fill="none" xmlns="http://www.w3.org/2000/svg">
<g filter="url(#filter0_i_1093_22)">
<path fill-rule="evenodd" clip-rule="evenodd" d="M5.07774 3.09961C6.76904 3.09961 7.59585 4.12709 7.91466 4.6709C8.03492 4.87605 8.03492 5.12395 7.91466 5.3291C7.59585 5.87291 6.76904 6.90039 5.07774 6.90039C3.45902 6.90033 2.53361 5.95887 2.12755 5.40137C1.95105 5.159 1.95105 4.841 2.12755 4.59863C2.53361 4.04113 3.45902 3.09967 5.07774 3.09961ZM4.97911 3.7002C4.31589 3.7002 3.77825 4.23692 3.77794 4.89941C3.77794 5.56217 4.3157 6.09961 4.97911 6.09961C5.50712 6.09936 5.9548 5.75875 6.11548 5.28551C6.13965 5.2143 6.07579 5.14935 6.0006 5.14941C5.50361 5.14941 5.10031 4.74696 5.10021 4.25C5.10023 4.16007 5.11359 4.07322 5.13832 3.99129C5.17816 3.85927 5.11701 3.70026 4.97911 3.7002Z" fill="white"/>
</g>
<defs>
<filter id="filter0_i_1093_22" x="0" y="0" width="10" height="10" filterUnits="userSpaceOnUse" color-interpolation-filters="sRGB">
<feFlood flood-opacity="0" result="BackgroundImageFix"/>
<feBlend mode="normal" in="SourceGraphic" in2="BackgroundImageFix" result="shape"/>
<feColorMatrix in="SourceAlpha" type="matrix" values="0 0 0 0 0 0 0 0 0 0 0 0 0 0 0 0 0 0 127 0" result="hardAlpha"/>
<feOffset/>
<feGaussianBlur stdDeviation="1"/>
<feComposite in2="hardAlpha" operator="arithmetic" k2="-1" k3="1"/>
<feColorMatrix type="matrix" values="0 0 0 0 0.942 0 0 0 0 0.94 0 0 0 0 1 0 0 0 0.1 0"/>
<feBlend mode="hard-light" in2="shape" result="effect1_innerShadow_1093_22"/>
</filter>
</defs>
</svg>
