<svg width="10" height="10" viewBox="0 0 10 10" fill="none" xmlns="http://www.w3.org/2000/svg">
<g filter="url(#filter0_i_1093_8)">
<path d="M2.73712 2.73713C3.63531 1.83912 5.09138 1.83907 5.98954 2.73713C6.55548 3.30307 6.76279 4.08961 6.61475 4.81908C6.55653 5.10598 6.52742 5.24943 6.54915 5.33696C6.55305 5.35269 6.55508 5.35943 6.56052 5.3747C6.59075 5.45967 6.66887 5.53779 6.82512 5.69404L7.26219 6.13111C7.57456 6.44347 7.57514 6.95046 7.26288 7.2629C6.95047 7.57531 6.44352 7.57462 6.1311 7.2622L5.69405 6.82515C5.5378 6.6689 5.45967 6.59078 5.3747 6.56054C5.35943 6.55511 5.35269 6.55308 5.33696 6.54917C5.24943 6.52745 5.10597 6.55656 4.81905 6.61479C4.0896 6.76284 3.30309 6.55552 2.73712 5.98955C1.83901 5.09134 1.83895 3.63531 2.73712 2.73713ZM4.39302 2.70951C4.11708 2.70951 3.8934 2.93359 3.89308 3.20946C3.89288 3.38064 3.89277 3.46623 3.86705 3.53433C3.8264 3.64191 3.74142 3.7268 3.63378 3.76732C3.56565 3.79296 3.4803 3.79296 3.30958 3.79296C3.03355 3.79303 2.80972 4.01688 2.80963 4.29291C2.80973 4.56892 3.03356 4.79278 3.30958 4.79285C3.47983 4.79285 3.56496 4.79285 3.6329 4.81835C3.74102 4.85891 3.82633 4.94422 3.86689 5.05234C3.89239 5.12028 3.89239 5.20541 3.89239 5.37567C3.89239 5.65168 4.11637 5.87541 4.39233 5.87561C4.6684 5.87553 4.89228 5.65175 4.89228 5.37567C4.89228 5.20495 4.89228 5.11959 4.91793 5.05146C4.95844 4.94383 5.04333 4.85884 5.15092 4.81819C5.21901 4.79247 5.3046 4.79237 5.47578 4.79216C5.75175 4.79195 5.97573 4.56823 5.97573 4.29222C5.97537 4.01651 5.75152 3.79248 5.47578 3.79227C5.30581 3.79247 5.22083 3.79257 5.15299 3.76727C5.04427 3.72673 4.95851 3.64097 4.91797 3.53225C4.89267 3.46442 4.89277 3.37943 4.89297 3.20946C4.89265 2.93374 4.66876 2.70977 4.39302 2.70951Z" fill="white"/>
</g>
<defs>
<filter id="filter0_i_1093_8" x="0" y="0" width="10" height="10" filterUnits="userSpaceOnUse" color-interpolation-filters="sRGB">
<feFlood flood-opacity="0" result="BackgroundImageFix"/>
<feBlend mode="normal" in="SourceGraphic" in2="BackgroundImageFix" result="shape"/>
<feColorMatrix in="SourceAlpha" type="matrix" values="0 0 0 0 0 0 0 0 0 0 0 0 0 0 0 0 0 0 127 0" result="hardAlpha"/>
<feOffset/>
<feGaussianBlur stdDeviation="1"/>
<feComposite in2="hardAlpha" operator="arithmetic" k2="-1" k3="1"/>
<feColorMatrix type="matrix" values="0 0 0 0 0.942 0 0 0 0 0.94 0 0 0 0 1 0 0 0 0.1 0"/>
<feBlend mode="hard-light" in2="shape" result="effect1_innerShadow_1093_8"/>
</filter>
</defs>
</svg>
